<?xml version="1.0" encoding="utf-8"?>
<!-- Generator: Adobe Illustrator 17.0.0, SVG Export Plug-In . SVG Version: 6.00 Build 0)  -->
<!DOCTYPE svg PUBLIC "-//W3C//DTD SVG 1.1//EN" "http://www.w3.org/Graphics/SVG/1.1/DTD/svg11.dtd">
<svg version="1.1" id="Layer_8" xmlns="http://www.w3.org/2000/svg" xmlns:xlink="http://www.w3.org/1999/xlink" x="0px" y="0px"
	 width="100px" height="27.288px" viewBox="0 0 100 27.288" enable-background="new 0 0 100 27.288" xml:space="preserve">
<g>
	<g>
		<path fill="#FFFFFF" d="M32,18.074l-0.001-0.001c-0.188,0.479-0.658,0.818-1.211,0.818c-0.427,0-0.806-0.204-1.041-0.518h-0.001
			l-3.864-5.126l0.005-0.004c-0.16-0.213-0.255-0.474-0.255-0.759c0-0.704,0.581-1.276,1.297-1.276c0.428,0,0.807,0.205,1.042,0.519
			l0.003-0.002l2.489,3.3c0.924-2.106,2.293-4.907,4.066-7.667c0,0-0.001,0-0.001-0.001c0.003-0.004,0.007-0.009,0.009-0.013
			c-1.118-0.454-2.34-0.707-3.621-0.707c-5.321,0-9.633,4.313-9.633,9.633c0,5.32,4.312,9.633,9.633,9.633
			c5.319,0,9.632-4.313,9.632-9.633c0-3.114-1.479-5.881-3.773-7.643c0,0.002-0.002,0.003-0.003,0.005
			C34.391,12.318,32.763,16.129,32,18.074z"/>
		<path fill="#FFFFFF" d="M40.365,0.903c-0.346,0-0.662,0.135-0.895,0.352H39.47c-1.883,1.763-3.534,3.912-4.933,6.088h0.001
			c0.001-0.001,0.001-0.002,0.002-0.003c0.02,0.008,0.039,0.019,0.059,0.027c0.784,0.325,1.514,0.75,2.177,1.26
			c1.286-1.988,2.788-3.936,4.485-5.525V3.101c0.248-0.233,0.403-0.559,0.403-0.922C41.664,1.473,41.083,0.903,40.365,0.903z"/>
	</g>
	<g>
		<path fill="#FFFFFF" d="M43.656,22.224h0.933c0.549,0,0.925,0.314,0.925,0.867c0,0.484-0.376,0.889-1.113,0.889h-0.249v0.799
			h-0.495V22.224z M44.423,23.593c0.39,0,0.582-0.188,0.582-0.488c0-0.307-0.137-0.492-0.495-0.492h-0.358v0.979H44.423z"/>
		<path fill="#FFFFFF" d="M45.883,22.805h0.481v0.264c0.094-0.134,0.286-0.304,0.531-0.304c0.112,0,0.192,0.011,0.257,0.033
			l-0.069,0.397c-0.094-0.018-0.141-0.022-0.253-0.022c-0.199,0-0.379,0.116-0.466,0.224v1.381h-0.481V22.805z"/>
		<path fill="#FFFFFF" d="M47.235,23.81c0-0.665,0.397-1.055,0.983-1.055c0.658,0,0.961,0.387,0.961,1.037
			c0,0.68-0.419,1.03-0.99,1.03C47.578,24.822,47.235,24.439,47.235,23.81z M48.691,23.792c0-0.336-0.094-0.654-0.484-0.654
			c-0.383,0-0.488,0.318-0.488,0.658c0,0.365,0.119,0.64,0.495,0.64C48.597,24.435,48.691,24.15,48.691,23.792z"/>
		<path fill="#FFFFFF" d="M49.403,22.805h0.52l0.361,1.178l0.112,0.405l0.123-0.408l0.405-1.175h0.502l-0.741,1.973h-0.6
			L49.403,22.805z"/>
		<path fill="#FFFFFF" d="M51.619,23.81c0-0.665,0.397-1.055,0.983-1.055c0.658,0,0.961,0.387,0.961,1.037
			c0,0.68-0.419,1.03-0.99,1.03C51.962,24.822,51.619,24.439,51.619,23.81z M53.075,23.792c0-0.336-0.094-0.654-0.484-0.654
			c-0.383,0-0.488,0.318-0.488,0.658c0,0.365,0.119,0.64,0.495,0.64C52.981,24.435,53.075,24.15,53.075,23.792z"/>
		<path fill="#FFFFFF" d="M53.907,23.781c0-0.625,0.39-1.026,1.019-1.026c0.282,0,0.459,0.054,0.596,0.127l-0.13,0.358
			c-0.141-0.054-0.242-0.087-0.452-0.087c-0.296,0-0.542,0.177-0.542,0.629c0,0.437,0.123,0.643,0.632,0.643
			c0.163,0,0.275-0.029,0.405-0.051l0.069,0.372c-0.159,0.036-0.289,0.069-0.506,0.069C54.214,24.815,53.907,24.511,53.907,23.781z"
			/>
		<path fill="#FFFFFF" d="M55.793,24.229c0-0.495,0.448-0.596,0.813-0.6l0.39-0.004v-0.174c0-0.228-0.13-0.282-0.416-0.282
			c-0.188,0-0.405,0.051-0.549,0.087l-0.098-0.358c0.173-0.065,0.43-0.141,0.734-0.141c0.546,0,0.799,0.163,0.799,0.586v0.961
			c0,0.094,0.08,0.116,0.181,0.123l-0.022,0.369h-0.105c-0.21,0-0.437-0.051-0.481-0.224c-0.127,0.094-0.329,0.239-0.614,0.239
			C56.025,24.811,55.793,24.609,55.793,24.229z M56.997,24.309v-0.39l-0.365,0.014c-0.228,0.004-0.372,0.098-0.372,0.26
			c0,0.174,0.123,0.239,0.275,0.239C56.7,24.432,56.896,24.341,56.997,24.309z"/>
		<path fill="#FFFFFF" d="M59.075,24.19v-1.016h-0.289v-0.369h0.289v-0.405h0.477v0.405h0.614v0.369h-0.614v1.012
			c0,0.199,0.065,0.224,0.278,0.224c0.123,0,0.365-0.04,0.383-0.043l0.054,0.383c-0.112,0.036-0.293,0.069-0.43,0.069
			C59.462,24.819,59.075,24.826,59.075,24.19z"/>
		<path fill="#FFFFFF" d="M60.629,24.045v-1.24h0.481v1.185c0,0.286,0.047,0.408,0.307,0.408c0.206,0,0.419-0.105,0.513-0.155
			v-1.438h0.481v1.973H61.93v-0.213c-0.13,0.094-0.383,0.257-0.665,0.257C60.672,24.822,60.629,24.45,60.629,24.045z"/>
		<path fill="#FFFFFF" d="M63.738,23.781c0-0.625,0.39-1.026,1.019-1.026c0.282,0,0.459,0.054,0.596,0.127l-0.13,0.358
			c-0.141-0.054-0.242-0.087-0.452-0.087c-0.296,0-0.542,0.177-0.542,0.629c0,0.437,0.123,0.643,0.632,0.643
			c0.163,0,0.275-0.029,0.405-0.051l0.069,0.372c-0.159,0.036-0.289,0.069-0.506,0.069C64.045,24.815,63.738,24.511,63.738,23.781z"
			/>
		<path fill="#FFFFFF" d="M65.754,24.045v-1.24h0.481v1.185c0,0.286,0.047,0.408,0.307,0.408c0.206,0,0.419-0.105,0.513-0.155
			v-1.438h0.481v1.973h-0.481v-0.213c-0.13,0.094-0.383,0.257-0.665,0.257C65.797,24.822,65.754,24.45,65.754,24.045z"/>
		<path fill="#FFFFFF" d="M68.114,22.805h0.481v0.264c0.094-0.134,0.286-0.304,0.531-0.304c0.112,0,0.192,0.011,0.257,0.033
			l-0.069,0.397c-0.094-0.018-0.141-0.022-0.253-0.022c-0.199,0-0.379,0.116-0.466,0.224v1.381h-0.481V22.805z"/>
		<path fill="#FFFFFF" d="M69.654,21.956h0.481v0.463h-0.481V21.956z M69.658,22.805h0.481v1.973h-0.481V22.805z"/>
		<path fill="#FFFFFF" d="M70.601,23.81c0-0.665,0.397-1.055,0.983-1.055c0.658,0,0.961,0.387,0.961,1.037
			c0,0.68-0.419,1.03-0.99,1.03C70.944,24.822,70.601,24.439,70.601,23.81z M72.057,23.792c0-0.336-0.094-0.654-0.484-0.654
			c-0.383,0-0.488,0.318-0.488,0.658c0,0.365,0.119,0.64,0.495,0.64C71.963,24.435,72.057,24.15,72.057,23.792z"/>
		<path fill="#FFFFFF" d="M72.878,24.739l0.058-0.372c0.206,0.033,0.408,0.065,0.56,0.065c0.307,0,0.398-0.094,0.398-0.202
			c0-0.304-0.994-0.184-0.994-0.882c0-0.397,0.361-0.593,0.773-0.593c0.231,0,0.441,0.047,0.593,0.101l-0.08,0.358
			c-0.155-0.036-0.304-0.072-0.513-0.072c-0.22,0-0.293,0.098-0.293,0.181c0,0.314,0.987,0.228,0.987,0.882
			c0,0.495-0.495,0.618-0.824,0.618C73.265,24.822,73.044,24.786,72.878,24.739z"/>
		<path fill="#FFFFFF" d="M74.808,21.956h0.481v0.463h-0.481V21.956z M74.812,22.805h0.481v1.973h-0.481V22.805z"/>
		<path fill="#FFFFFF" d="M75.755,23.774c0-0.68,0.455-1.019,1.019-1.019c0.137,0,0.221,0.015,0.311,0.033v-0.734h0.481v2.725
			h-0.481V24.62c-0.098,0.083-0.231,0.192-0.47,0.192C76.236,24.811,75.755,24.638,75.755,23.774z M77.085,24.284v-1.106
			c-0.072-0.018-0.163-0.04-0.304-0.04c-0.39,0-0.546,0.278-0.546,0.647c0,0.47,0.206,0.625,0.463,0.625
			C76.839,24.41,76.998,24.331,77.085,24.284z"/>
		<path fill="#FFFFFF" d="M78.01,24.229c0-0.495,0.448-0.596,0.813-0.6l0.39-0.004v-0.174c0-0.228-0.13-0.282-0.416-0.282
			c-0.188,0-0.405,0.051-0.549,0.087l-0.098-0.358c0.173-0.065,0.43-0.141,0.734-0.141c0.546,0,0.799,0.163,0.799,0.586v0.961
			c0,0.094,0.08,0.116,0.181,0.123l-0.022,0.369h-0.105c-0.21,0-0.437-0.051-0.481-0.224c-0.127,0.094-0.329,0.239-0.614,0.239
			C78.242,24.811,78.01,24.609,78.01,24.229z M79.214,24.309v-0.39l-0.365,0.014c-0.228,0.004-0.372,0.098-0.372,0.26
			c0,0.174,0.123,0.239,0.275,0.239C78.917,24.432,79.113,24.341,79.214,24.309z"/>
		<path fill="#FFFFFF" d="M80.233,23.774c0-0.68,0.455-1.019,1.019-1.019c0.137,0,0.221,0.015,0.311,0.033v-0.734h0.481v2.725
			h-0.481V24.62c-0.098,0.083-0.231,0.192-0.47,0.192C80.714,24.811,80.233,24.638,80.233,23.774z M81.563,24.284v-1.106
			c-0.072-0.018-0.163-0.04-0.304-0.04c-0.39,0-0.546,0.278-0.546,0.647c0,0.47,0.206,0.625,0.463,0.625
			C81.317,24.41,81.476,24.331,81.563,24.284z"/>
	</g>
	<g>
		<path fill="#FFFFFF" d="M46.267,12.62h1.657l2.293,6.618h-1.329l-0.73-2.144H45.78l-0.814,2.144h-1.282L46.267,12.62z
			 M47.849,16.149l-0.805-2.715l-0.908,2.715H47.849z"/>
		<path fill="#FFFFFF" d="M51.079,14.127h1.236v0.384c0.262-0.197,0.814-0.505,1.311-0.505c1.376,0,2.19,0.749,2.19,2.471
			c0,2.134-1.301,2.855-2.715,2.855c-0.309,0-0.571-0.028-0.786-0.047v2.013h-1.236V14.127z M54.552,16.579
			c0-0.974-0.328-1.526-1.282-1.526c-0.346,0-0.768,0.197-0.955,0.271v2.967c0.187,0.019,0.44,0.075,0.824,0.075
			C54.055,18.367,54.552,17.6,54.552,16.579z"/>
		<path fill="#FFFFFF" d="M56.985,14.127h1.245v0.683c0.243-0.346,0.74-0.786,1.376-0.786c0.29,0,0.496,0.028,0.665,0.084
			l-0.178,1.03c-0.243-0.047-0.365-0.056-0.655-0.056c-0.515,0-0.983,0.3-1.208,0.58v3.576h-1.245V14.127z"/>
		<path fill="#FFFFFF" d="M60.515,16.766c0-2.087,1.058-2.761,2.499-2.761c1.479,0,2.078,0.974,2.078,2.574v0.449H61.76
			c0,1.123,0.702,1.311,1.61,1.311c0.356,0,0.964-0.122,1.385-0.206l0.197,0.964c-0.421,0.131-1.105,0.253-1.807,0.253
			C61.535,19.35,60.515,18.77,60.515,16.766z M63.81,16.195c0.009-0.768-0.3-1.301-0.917-1.301c-0.627,0-1.048,0.459-1.105,1.301
			H63.81z"/>
		<path fill="#FFFFFF" d="M66.243,14.127h1.245v0.543c0.374-0.271,1.002-0.674,1.713-0.674c1.563,0,1.666,0.945,1.666,2.003v3.239
			h-1.236v-3.098c0-0.777-0.15-1.058-0.833-1.058c-0.515,0-1.002,0.234-1.311,0.403v3.754h-1.245V14.127z"/>
		<path fill="#FFFFFF" d="M72.019,16.635c0-1.76,1.179-2.64,2.64-2.64c0.356,0,0.571,0.037,0.805,0.084v-1.9h1.245v7.058h-1.245
			v-0.412c-0.253,0.215-0.599,0.496-1.217,0.496C73.264,19.322,72.019,18.873,72.019,16.635z M75.464,17.955v-2.864
			c-0.187-0.047-0.421-0.103-0.786-0.103c-1.011,0-1.413,0.721-1.413,1.676c0,1.217,0.534,1.619,1.198,1.619
			C74.827,18.283,75.239,18.077,75.464,17.955z"/>
		<path fill="#FFFFFF" d="M77.889,16.766c0-2.087,1.058-2.761,2.499-2.761c1.479,0,2.078,0.974,2.078,2.574v0.449h-3.332
			c0,1.123,0.702,1.311,1.61,1.311c0.356,0,0.964-0.122,1.385-0.206l0.197,0.964c-0.421,0.131-1.105,0.253-1.807,0.253
			C78.909,19.35,77.889,18.77,77.889,16.766z M81.184,16.195c0.009-0.768-0.3-1.301-0.917-1.301c-0.627,0-1.048,0.459-1.105,1.301
			H81.184z"/>
	</g>
</g>
</svg>
