<?xml version="1.0" encoding="utf-8"?>
<!-- Generator: Adobe Illustrator 17.0.0, SVG Export Plug-In . SVG Version: 6.00 Build 0)  -->
<!DOCTYPE svg PUBLIC "-//W3C//DTD SVG 1.1//EN" "http://www.w3.org/Graphics/SVG/1.1/DTD/svg11.dtd">
<svg version="1.1" id="Layer_5" xmlns="http://www.w3.org/2000/svg" xmlns:xlink="http://www.w3.org/1999/xlink" x="0px" y="0px"
	 width="100px" height="27.288px" viewBox="0 0 100 27.288" enable-background="new 0 0 100 27.288" xml:space="preserve">
<g>
	<g>
		<path fill="#FFFFFF" d="M22.386,18.459l-0.001-0.001c-0.188,0.479-0.658,0.818-1.211,0.818c-0.427,0-0.807-0.204-1.041-0.518
			h-0.001l-3.864-5.125l0.005-0.004c-0.16-0.213-0.255-0.474-0.255-0.759c0-0.703,0.581-1.276,1.297-1.276
			c0.428,0,0.807,0.205,1.042,0.519l0.003-0.002l2.488,3.3c0.924-2.106,2.293-4.907,4.065-7.667c0,0-0.001,0-0.001-0.001
			c0.003-0.004,0.007-0.009,0.01-0.013c-1.118-0.454-2.34-0.707-3.621-0.707c-5.321,0-9.633,4.313-9.633,9.633
			c0,5.32,4.312,9.633,9.633,9.633c5.319,0,9.632-4.313,9.632-9.633c0-3.115-1.479-5.882-3.773-7.643
			c0,0.002-0.002,0.003-0.003,0.005C24.777,12.703,23.149,16.514,22.386,18.459z"/>
		<path fill="#FFFFFF" d="M30.752,1.288c-0.346,0-0.662,0.135-0.895,0.353h-0.001c-1.883,1.762-3.534,3.912-4.933,6.088h0.001
			c0.001-0.001,0.001-0.002,0.002-0.003c0.02,0.008,0.04,0.019,0.059,0.027c0.784,0.325,1.514,0.75,2.177,1.259
			c1.286-1.988,2.788-3.936,4.485-5.525V3.486c0.248-0.233,0.403-0.559,0.403-0.922C32.05,1.858,31.469,1.288,30.752,1.288z"/>
	</g>
	<g>
		<path fill="#FFFFFF" d="M35.762,9.764h-2.144v-1.02h5.57v1.02h-2.144v5.598h-1.282V9.764z"/>
		<path fill="#FFFFFF" d="M38.823,10.251h1.348l0.936,3.052l0.29,1.048l0.318-1.058l1.048-3.042h1.301l-1.919,5.111h-1.554
			L38.823,10.251z"/>
		<path fill="#FFFFFF" d="M47.295,8.744h2.144c2.228,0,3.791,1.039,3.791,3.286c0,2.303-1.423,3.332-3.735,3.332h-2.2V8.744z
			 M49.598,14.351c1.591,0,2.349-0.768,2.349-2.228c0-1.591-0.88-2.368-2.537-2.368h-0.852v4.596H49.598z"/>
		<path fill="#FFFFFF" d="M54.128,12.853c0-1.722,1.03-2.733,2.546-2.733c1.704,0,2.49,1.002,2.49,2.687
			c0,1.76-1.086,2.668-2.565,2.668C55.018,15.474,54.128,14.482,54.128,12.853z M57.901,12.807c0-0.871-0.243-1.694-1.254-1.694
			c-0.992,0-1.264,0.824-1.264,1.704c0,0.945,0.309,1.657,1.283,1.657C57.658,14.473,57.901,13.733,57.901,12.807z"/>
		<path fill="#FFFFFF" d="M60.035,12.779c0-1.619,1.011-2.658,2.64-2.658c0.73,0,1.189,0.14,1.545,0.328l-0.337,0.927
			c-0.365-0.14-0.627-0.225-1.17-0.225c-0.768,0-1.404,0.459-1.404,1.629c0,1.133,0.318,1.666,1.638,1.666
			c0.421,0,0.711-0.075,1.048-0.131l0.178,0.964c-0.412,0.094-0.749,0.178-1.311,0.178C60.831,15.456,60.035,14.669,60.035,12.779z"
			/>
		<path fill="#FFFFFF" d="M64.95,12.891c0-2.087,1.058-2.761,2.499-2.761c1.479,0,2.078,0.974,2.078,2.574v0.449h-3.332
			c0,1.123,0.702,1.311,1.61,1.311c0.356,0,0.964-0.122,1.385-0.206l0.197,0.964c-0.421,0.131-1.105,0.253-1.807,0.253
			C65.97,15.474,64.95,14.894,64.95,12.891z M68.245,12.32c0.009-0.768-0.3-1.301-0.917-1.301c-0.627,0-1.048,0.459-1.105,1.301
			H68.245z"/>
		<path fill="#FFFFFF" d="M70.679,10.251h1.245v0.543c0.374-0.271,1.002-0.674,1.713-0.674c1.563,0,1.666,0.945,1.666,2.003v3.239
			h-1.236v-3.098c0-0.777-0.15-1.058-0.833-1.058c-0.515,0-1.001,0.234-1.311,0.403v3.754h-1.245V10.251z"/>
		<path fill="#FFFFFF" d="M76.454,12.779c0-1.619,1.011-2.658,2.64-2.658c0.73,0,1.189,0.14,1.545,0.328l-0.337,0.927
			c-0.365-0.14-0.627-0.225-1.17-0.225c-0.768,0-1.404,0.459-1.404,1.629c0,1.133,0.318,1.666,1.638,1.666
			c0.421,0,0.711-0.075,1.048-0.131l0.178,0.964c-0.412,0.094-0.749,0.178-1.311,0.178C77.25,15.456,76.454,14.669,76.454,12.779z"
			/>
		<path fill="#FFFFFF" d="M81.668,8.051h1.245v1.198h-1.245V8.051z M81.678,10.251h1.245v5.111h-1.245V10.251z"/>
		<path fill="#FFFFFF" d="M84.055,13.939c0-1.282,1.161-1.545,2.106-1.554l1.011-0.009v-0.449c0-0.59-0.337-0.73-1.076-0.73
			c-0.487,0-1.048,0.131-1.423,0.225l-0.253-0.927c0.449-0.168,1.114-0.365,1.9-0.365c1.413,0,2.069,0.421,2.069,1.516v2.49
			c0,0.243,0.206,0.3,0.468,0.318l-0.056,0.955H88.53c-0.543,0-1.133-0.131-1.245-0.58c-0.327,0.243-0.852,0.618-1.591,0.618
			C84.654,15.446,84.055,14.922,84.055,13.939z M87.172,14.145v-1.011l-0.945,0.037c-0.59,0.009-0.964,0.253-0.964,0.674
			c0,0.449,0.318,0.618,0.711,0.618C86.405,14.464,86.91,14.229,87.172,14.145z"/>
	</g>
	<g>
		<g>
			<path fill="#FFFFFF" d="M42.759,18.722h2.431v0.791H43.65v0.933h1.425v0.737H43.65v0.951h1.661v0.791h-2.552V18.722z"/>
			<path fill="#FFFFFF" d="M46.007,18.722h1.326c1.284,0,2.164,0.624,2.164,2.086c0,1.456-0.796,2.116-2.133,2.116h-1.357V18.722z
				 M47.422,22.134c0.854,0,1.184-0.44,1.184-1.266c0-0.904-0.398-1.355-1.289-1.355h-0.425v2.621H47.422z"/>
			<path fill="#FFFFFF" d="M50.141,21.213v-2.49h0.901v2.455c0,0.642,0.257,0.999,0.823,0.999c0.561,0,0.823-0.375,0.823-1.123
				v-2.33h0.875v2.348c0,1.468-0.87,1.932-1.698,1.932C51.011,23.002,50.141,22.574,50.141,21.213z"/>
			<path fill="#FFFFFF" d="M54.129,22.693l0.252-0.725c0.33,0.131,0.571,0.19,0.98,0.19c0.446,0,0.65-0.155,0.65-0.41
				c0-0.683-1.761-0.499-1.761-1.926c0-0.808,0.676-1.159,1.331-1.159c0.587,0,0.87,0.143,1.158,0.285l-0.257,0.701
				c-0.272-0.089-0.498-0.172-0.875-0.172c-0.372,0-0.487,0.16-0.487,0.339c0,0.559,1.792,0.559,1.792,1.896
				c0,0.921-0.775,1.278-1.541,1.278C54.763,22.99,54.406,22.865,54.129,22.693z"/>
			<path fill="#FFFFFF" d="M58.629,18.722h1.147l1.247,4.202h-0.922l-0.351-1.23h-1.252l-0.403,1.23h-0.891L58.629,18.722z
				 M59.541,20.963l-0.372-1.617l-0.435,1.617H59.541z"/>
			<path fill="#FFFFFF" d="M61.904,19.513h-1.163v-0.791h3.217v0.791h-1.163v3.412h-0.891V19.513z"/>
		</g>
		<g>
			<path fill="#FFFFFF" d="M35.822,19.521h-0.94v-0.794l1.841-0.061v4.229h-0.9V19.521z"/>
			<path fill="#FFFFFF" d="M37.622,22.063c0.48-0.416,1.914-1.392,1.914-1.975c0-0.462-0.287-0.598-0.7-0.598
				c-0.347,0-0.72,0.144-0.894,0.227l-0.227-0.734c0.187-0.129,0.687-0.325,1.16-0.325c1.227,0,1.534,0.711,1.534,1.4
				c0,0.915-1.094,1.664-1.661,2.02h1.847v0.817h-2.974V22.063z"/>
		</g>
	</g>
</g>
</svg>
