<?xml version="1.0" encoding="utf-8"?>
<!-- Generator: Adobe Illustrator 17.0.0, SVG Export Plug-In . SVG Version: 6.00 Build 0)  -->
<!DOCTYPE svg PUBLIC "-//W3C//DTD SVG 1.1//EN" "http://www.w3.org/Graphics/SVG/1.1/DTD/svg11.dtd">
<svg version="1.1" id="Layer_7" xmlns="http://www.w3.org/2000/svg" xmlns:xlink="http://www.w3.org/1999/xlink" x="0px" y="0px"
	 width="100px" height="27.288px" viewBox="0 0 100 27.288" enable-background="new 0 0 100 27.288" xml:space="preserve">
<g>
	<g>
		<g>
			<g>
				<path fill="#FFFFFF" d="M24.996,18.315l-0.001-0.001c-0.188,0.479-0.658,0.819-1.211,0.819c-0.427,0-0.807-0.204-1.041-0.518
					h-0.001l-3.864-5.126l0.005-0.004c-0.16-0.213-0.255-0.474-0.255-0.759c0-0.703,0.581-1.276,1.298-1.276
					c0.428,0,0.807,0.205,1.042,0.519l0.003-0.002l2.488,3.3c0.924-2.106,2.293-4.907,4.065-7.667c0,0-0.001,0-0.001-0.001
					c0.003-0.004,0.007-0.009,0.009-0.013c-1.118-0.454-2.34-0.707-3.621-0.707c-5.321,0-9.633,4.313-9.633,9.633
					c0,5.32,4.312,9.633,9.633,9.633c5.319,0,9.632-4.313,9.632-9.633c0-3.115-1.479-5.882-3.773-7.643
					c0,0.002-0.002,0.003-0.003,0.005C27.387,12.559,25.759,16.37,24.996,18.315z"/>
			</g>
			<g>
				<path fill="#FFFFFF" d="M33.362,1.144c-0.346,0-0.662,0.135-0.895,0.353h-0.001c-1.883,1.762-3.534,3.912-4.933,6.088h0.001
					c0.001-0.001,0.001-0.002,0.002-0.002c0.02,0.008,0.04,0.018,0.059,0.027c0.784,0.325,1.514,0.75,2.177,1.259
					c1.286-1.987,2.788-3.936,4.485-5.524V3.342c0.248-0.233,0.403-0.559,0.403-0.922C34.66,1.715,34.079,1.144,33.362,1.144z"/>
			</g>
		</g>
		<g>
			<path fill="#FFFFFF" d="M45.529,18.927h2.431v0.791H46.42v0.933h1.425v0.737H46.42v0.951h1.661v0.791h-2.552V18.927z"/>
			<path fill="#FFFFFF" d="M48.778,18.927h1.326c1.284,0,2.164,0.624,2.164,2.086c0,1.456-0.796,2.116-2.133,2.116h-1.357V18.927z
				 M50.193,22.339c0.854,0,1.184-0.44,1.184-1.266c0-0.904-0.398-1.355-1.289-1.355h-0.424v2.621H50.193z"/>
			<path fill="#FFFFFF" d="M52.912,21.417v-2.49h0.901v2.455c0,0.642,0.257,0.999,0.823,0.999c0.561,0,0.823-0.375,0.823-1.123
				v-2.33h0.875v2.348c0,1.468-0.87,1.932-1.698,1.932C53.782,23.206,52.912,22.778,52.912,21.417z"/>
			<path fill="#FFFFFF" d="M56.899,22.897l0.252-0.725c0.33,0.131,0.571,0.19,0.98,0.19c0.446,0,0.65-0.155,0.65-0.41
				c0-0.683-1.761-0.499-1.761-1.926c0-0.808,0.676-1.159,1.331-1.159c0.587,0,0.87,0.143,1.158,0.285l-0.257,0.701
				c-0.272-0.089-0.498-0.172-0.875-0.172c-0.372,0-0.487,0.16-0.487,0.339c0,0.559,1.792,0.559,1.792,1.896
				c0,0.921-0.776,1.278-1.541,1.278C57.533,23.194,57.177,23.07,56.899,22.897z"/>
			<path fill="#FFFFFF" d="M61.4,18.927h1.147l1.247,4.202h-0.922l-0.351-1.23h-1.252l-0.403,1.23h-0.891L61.4,18.927z
				 M62.312,21.168l-0.372-1.617l-0.435,1.617H62.312z"/>
			<path fill="#FFFFFF" d="M64.675,19.717h-1.163v-0.791h3.217v0.791h-1.163v3.412h-0.891V19.717z"/>
		</g>
		<path fill="#FFFFFF" d="M37.597,23.062v-0.535c0.315-0.298,1.773-1.587,1.773-2.251c0-0.462-0.236-0.613-0.613-0.613
			c-0.406,0-0.63,0.106-0.799,0.18l-0.243-0.524c0.243-0.141,0.518-0.281,1.114-0.281c1.086,0,1.295,0.647,1.295,1.193
			c0,0.839-0.833,1.576-1.57,2.218h1.744v0.614H37.597z"/>
		<path fill="#FFFFFF" d="M40.481,21.345c0-1.542,0.737-2.301,1.851-2.301c0.293,0,0.573,0.044,0.753,0.112l-0.163,0.586
			c-0.163-0.039-0.371-0.068-0.597-0.068c-0.619,0-0.912,0.417-1.024,0.98c0.192-0.079,0.405-0.146,0.72-0.146
			c0.855,0,1.345,0.405,1.345,1.238c0,0.895-0.631,1.384-1.401,1.384C41.015,23.129,40.481,22.634,40.481,21.345z M42.618,21.801
			c0-0.506-0.275-0.709-0.669-0.709c-0.304,0-0.535,0.079-0.72,0.146v0.141c0,0.81,0.18,1.136,0.777,1.136
			C42.382,22.516,42.618,22.218,42.618,21.801z"/>
		<g>
			<path fill="#FFFFFF" d="M37.006,9.077h4.1v1.011h-2.827v1.807H40.9v0.955h-2.621v1.835h3.042v1.011h-4.315V9.077z"/>
			<path fill="#FFFFFF" d="M42.192,15.592l0.15-0.964c0.533,0.084,1.058,0.168,1.451,0.168c0.796,0,1.03-0.243,1.03-0.524
				c0-0.786-2.574-0.477-2.574-2.284c0-1.03,0.936-1.535,2.003-1.535c0.599,0,1.142,0.122,1.535,0.262l-0.206,0.927
				c-0.403-0.094-0.786-0.187-1.329-0.187c-0.571,0-0.758,0.253-0.758,0.468c0,0.814,2.556,0.59,2.556,2.284
				c0,1.282-1.283,1.601-2.134,1.601C43.194,15.807,42.623,15.714,42.192,15.592z"/>
			<path fill="#FFFFFF" d="M47.182,10.584h1.236v0.384c0.262-0.197,0.814-0.505,1.311-0.505c1.376,0,2.19,0.749,2.19,2.471
				c0,2.134-1.301,2.855-2.715,2.855c-0.309,0-0.571-0.028-0.786-0.047v2.013h-1.236V10.584z M50.654,13.036
				c0-0.974-0.328-1.526-1.282-1.526c-0.346,0-0.768,0.197-0.955,0.271v2.967c0.187,0.019,0.44,0.075,0.824,0.075
				C50.158,14.824,50.654,14.057,50.654,13.036z"/>
			<path fill="#FFFFFF" d="M52.779,13.224c0-2.087,1.058-2.761,2.5-2.761c1.479,0,2.078,0.974,2.078,2.574v0.449h-3.332
				c0,1.123,0.702,1.311,1.61,1.311c0.356,0,0.964-0.122,1.385-0.206l0.196,0.964c-0.421,0.131-1.105,0.253-1.807,0.253
				C53.8,15.807,52.779,15.227,52.779,13.224z M56.075,12.653c0.009-0.768-0.3-1.301-0.917-1.301c-0.627,0-1.048,0.459-1.105,1.301
				H56.075z"/>
			<path fill="#FFFFFF" d="M58.2,13.111c0-1.619,1.011-2.659,2.64-2.659c0.73,0,1.189,0.14,1.544,0.328l-0.337,0.927
				c-0.365-0.14-0.627-0.225-1.17-0.225c-0.768,0-1.404,0.459-1.404,1.629c0,1.133,0.318,1.666,1.638,1.666
				c0.421,0,0.711-0.075,1.048-0.131l0.178,0.964c-0.412,0.094-0.749,0.178-1.311,0.178C58.995,15.788,58.2,15.002,58.2,13.111z"/>
			<path fill="#FFFFFF" d="M63.413,8.384h1.245v1.198h-1.245V8.384z M63.423,10.584h1.245v5.111h-1.245V10.584z"/>
			<path fill="#FFFFFF" d="M65.8,14.272c0-1.282,1.161-1.545,2.106-1.554l1.011-0.009v-0.449c0-0.59-0.337-0.73-1.077-0.73
				c-0.487,0-1.048,0.131-1.423,0.225l-0.253-0.927c0.449-0.168,1.114-0.365,1.9-0.365c1.414,0,2.069,0.421,2.069,1.516v2.49
				c0,0.243,0.206,0.3,0.468,0.318l-0.056,0.955h-0.272c-0.543,0-1.133-0.131-1.245-0.58c-0.328,0.243-0.852,0.618-1.591,0.618
				C66.399,15.779,65.8,15.255,65.8,14.272z M68.918,14.478v-1.011l-0.946,0.037c-0.59,0.009-0.964,0.253-0.964,0.674
				c0,0.449,0.318,0.618,0.711,0.618C68.15,14.796,68.656,14.562,68.918,14.478z"/>
			<path fill="#FFFFFF" d="M71.848,8.637h1.245v7.058h-1.245V8.637z"/>
			<path fill="#FFFFFF" d="M74.272,13.224c0-2.087,1.058-2.761,2.499-2.761c1.479,0,2.078,0.974,2.078,2.574v0.449h-3.332
				c0,1.123,0.702,1.311,1.61,1.311c0.356,0,0.964-0.122,1.385-0.206l0.197,0.964c-0.421,0.131-1.105,0.253-1.807,0.253
				C75.292,15.807,74.272,15.227,74.272,13.224z M77.567,12.653c0.009-0.768-0.3-1.301-0.917-1.301
				c-0.627,0-1.048,0.459-1.105,1.301H77.567z"/>
			<path fill="#FFFFFF" d="M79.664,15.592l0.15-0.964c0.533,0.084,1.058,0.168,1.451,0.168c0.796,0,1.03-0.243,1.03-0.524
				c0-0.786-2.574-0.477-2.574-2.284c0-1.03,0.936-1.535,2.003-1.535c0.599,0,1.142,0.122,1.535,0.262l-0.206,0.927
				c-0.403-0.094-0.786-0.187-1.329-0.187c-0.571,0-0.758,0.253-0.758,0.468c0,0.814,2.556,0.59,2.556,2.284
				c0,1.282-1.283,1.601-2.134,1.601C80.666,15.807,80.095,15.714,79.664,15.592z"/>
		</g>
	</g>
</g>
</svg>
