<?xml version="1.0" encoding="utf-8"?>
<!-- Generator: Adobe Illustrator 17.0.0, SVG Export Plug-In . SVG Version: 6.00 Build 0)  -->
<!DOCTYPE svg PUBLIC "-//W3C//DTD SVG 1.1//EN" "http://www.w3.org/Graphics/SVG/1.1/DTD/svg11.dtd">
<svg version="1.1" id="Layer_2" xmlns="http://www.w3.org/2000/svg" xmlns:xlink="http://www.w3.org/1999/xlink" x="0px" y="0px"
	 width="100px" height="27.288px" viewBox="0 0 100 27.288" enable-background="new 0 0 100 27.288" xml:space="preserve">
<g>
	<g>
		<g>
			<g>
				<path fill="#FFFFFF" d="M26.716,18.315l-0.001-0.001c-0.188,0.479-0.658,0.818-1.211,0.818c-0.427,0-0.807-0.204-1.041-0.517
					h-0.001l-3.864-5.126l0.005-0.004c-0.16-0.213-0.255-0.474-0.255-0.759c0-0.704,0.581-1.276,1.298-1.276
					c0.428,0,0.807,0.205,1.042,0.519l0.003-0.002l2.488,3.3c0.924-2.106,2.293-4.907,4.066-7.667c0,0-0.001,0-0.001-0.001
					c0.003-0.004,0.007-0.009,0.009-0.013c-1.118-0.454-2.34-0.707-3.621-0.707c-5.321,0-9.633,4.313-9.633,9.632
					c0,5.32,4.312,9.633,9.633,9.633c5.319,0,9.632-4.313,9.632-9.633c0-3.114-1.479-5.881-3.773-7.643
					c0,0.002-0.002,0.003-0.003,0.005C29.108,12.559,27.48,16.37,26.716,18.315z"/>
				<path fill="#FFFFFF" d="M30.592,8.271C30.9,8.46,31.2,8.659,31.49,8.873C31.206,8.656,30.905,8.457,30.592,8.271z"/>
				<path fill="#FFFFFF" d="M35.082,1.144c-0.346,0-0.662,0.135-0.895,0.352h-0.001c-1.883,1.763-3.534,3.912-4.933,6.088h0.001
					c0.001-0.001,0.001-0.002,0.002-0.003c0.02,0.008,0.04,0.019,0.059,0.027c0.784,0.325,1.514,0.75,2.177,1.259
					c1.286-1.988,2.788-3.936,4.485-5.525V3.342c0.248-0.233,0.403-0.559,0.403-0.922C36.38,1.714,35.8,1.144,35.082,1.144z"/>
				<path fill="#FFFFFF" d="M30.592,8.271c-0.407-0.249-0.831-0.474-1.277-0.662c-0.02-0.008-0.041-0.016-0.061-0.024
					c-0.003,0.005-0.006,0.009-0.009,0.014C29.718,7.79,30.166,8.017,30.592,8.271z"/>
			</g>
		</g>
	</g>
	<g>
		<path fill="#FFFFFF" d="M38.241,22.333h0.489v2.542h-0.489V22.333z"/>
		<path fill="#FFFFFF" d="M39.355,22.912h0.478v0.209c0.144-0.104,0.385-0.259,0.658-0.259c0.6,0,0.64,0.363,0.64,0.769v1.244
			h-0.475v-1.19c0-0.298-0.058-0.406-0.32-0.406c-0.198,0-0.385,0.09-0.503,0.155v1.442h-0.478V22.912z"/>
		<path fill="#FFFFFF" d="M41.57,24.835l0.058-0.37c0.205,0.032,0.406,0.065,0.557,0.065c0.306,0,0.395-0.093,0.395-0.201
			c0-0.302-0.989-0.183-0.989-0.877c0-0.395,0.36-0.59,0.769-0.59c0.23,0,0.439,0.047,0.59,0.101l-0.079,0.356
			c-0.155-0.036-0.302-0.072-0.511-0.072c-0.219,0-0.291,0.097-0.291,0.18c0,0.313,0.981,0.226,0.981,0.877
			c0,0.492-0.493,0.615-0.82,0.615C41.955,24.918,41.735,24.882,41.57,24.835z"/>
		<path fill="#FFFFFF" d="M43.493,22.912h0.475v0.147c0.101-0.075,0.313-0.194,0.503-0.194c0.528,0,0.841,0.288,0.841,0.949
			c0,0.82-0.5,1.096-1.043,1.096c-0.119,0-0.219-0.011-0.302-0.018v0.773h-0.475V22.912z M44.827,23.854
			c0-0.374-0.126-0.586-0.493-0.586c-0.133,0-0.295,0.075-0.367,0.104v1.14c0.072,0.007,0.169,0.029,0.316,0.029
			C44.637,24.54,44.827,24.246,44.827,23.854z"/>
		<path fill="#FFFFFF" d="M45.766,22.067h0.478v0.46h-0.478V22.067z M45.769,22.912h0.478v1.963h-0.478V22.912z"/>
		<path fill="#FFFFFF" d="M46.826,22.912h0.478v0.262c0.093-0.133,0.284-0.302,0.528-0.302c0.111,0,0.191,0.011,0.255,0.032
			L48.02,23.3c-0.093-0.018-0.14-0.022-0.252-0.022c-0.198,0-0.377,0.115-0.464,0.223v1.373h-0.478V22.912z"/>
		<path fill="#FFFFFF" d="M48.207,24.328c0-0.493,0.446-0.593,0.809-0.597l0.388-0.004v-0.173c0-0.227-0.129-0.281-0.413-0.281
			c-0.187,0-0.403,0.05-0.546,0.086l-0.097-0.356c0.173-0.065,0.428-0.14,0.73-0.14c0.543,0,0.795,0.162,0.795,0.582v0.956
			c0,0.093,0.079,0.115,0.18,0.122l-0.022,0.367h-0.104c-0.209,0-0.435-0.05-0.478-0.223c-0.126,0.094-0.327,0.237-0.611,0.237
			C48.437,24.907,48.207,24.706,48.207,24.328z M49.404,24.407v-0.388l-0.363,0.014c-0.226,0.004-0.37,0.097-0.37,0.259
			c0,0.173,0.122,0.237,0.273,0.237C49.109,24.53,49.303,24.44,49.404,24.407z"/>
		<path fill="#FFFFFF" d="M50.418,23.882c0-0.622,0.388-1.021,1.014-1.021c0.28,0,0.457,0.054,0.593,0.126l-0.129,0.356
			c-0.14-0.054-0.241-0.086-0.449-0.086c-0.295,0-0.539,0.176-0.539,0.626c0,0.435,0.122,0.64,0.629,0.64
			c0.162,0,0.273-0.029,0.403-0.05l0.068,0.37c-0.158,0.036-0.288,0.068-0.503,0.068C50.724,24.911,50.418,24.609,50.418,23.882z"/>
		<path fill="#FFFFFF" d="M52.428,22.067h0.478v0.46h-0.478V22.067z M52.431,22.912h0.478v1.963h-0.478V22.912z"/>
		<path fill="#FFFFFF" d="M53.37,23.911c0-0.662,0.395-1.05,0.978-1.05c0.654,0,0.956,0.385,0.956,1.032
			c0,0.676-0.417,1.025-0.985,1.025C53.711,24.918,53.37,24.537,53.37,23.911z M54.818,23.893c0-0.334-0.093-0.651-0.482-0.651
			c-0.381,0-0.485,0.316-0.485,0.654c0,0.363,0.119,0.636,0.492,0.636C54.725,24.533,54.818,24.249,54.818,23.893z M53.898,22.394
			l0.787-0.446l0.169,0.342l-0.813,0.399L53.898,22.394z"/>
		<path fill="#FFFFFF" d="M55.764,22.912h0.478v0.209c0.144-0.104,0.385-0.259,0.658-0.259c0.6,0,0.64,0.363,0.64,0.769v1.244
			h-0.475v-1.19c0-0.298-0.058-0.406-0.32-0.406c-0.198,0-0.384,0.09-0.503,0.155v1.442h-0.478V22.912z"/>
		<path fill="#FFFFFF" d="M58.971,22.912h0.475v0.147c0.101-0.075,0.313-0.194,0.503-0.194c0.529,0,0.841,0.288,0.841,0.949
			c0,0.82-0.5,1.096-1.043,1.096c-0.119,0-0.219-0.011-0.302-0.018v0.773h-0.475V22.912z M60.305,23.854
			c0-0.374-0.126-0.586-0.492-0.586c-0.133,0-0.295,0.075-0.367,0.104v1.14c0.072,0.007,0.169,0.029,0.316,0.029
			C60.114,24.54,60.305,24.246,60.305,23.854z"/>
		<path fill="#FFFFFF" d="M61.11,24.328c0-0.493,0.446-0.593,0.809-0.597l0.388-0.004v-0.173c0-0.227-0.129-0.281-0.413-0.281
			c-0.187,0-0.403,0.05-0.546,0.086l-0.097-0.356c0.173-0.065,0.428-0.14,0.73-0.14c0.543,0,0.794,0.162,0.794,0.582v0.956
			c0,0.093,0.079,0.115,0.18,0.122l-0.021,0.367h-0.104c-0.209,0-0.435-0.05-0.478-0.223c-0.126,0.094-0.327,0.237-0.611,0.237
			C61.34,24.907,61.11,24.706,61.11,24.328z M62.307,24.407v-0.388l-0.363,0.014c-0.227,0.004-0.37,0.097-0.37,0.259
			c0,0.173,0.122,0.237,0.273,0.237C62.012,24.53,62.206,24.44,62.307,24.407z"/>
		<path fill="#FFFFFF" d="M63.44,22.912h0.478v0.262c0.094-0.133,0.284-0.302,0.529-0.302c0.112,0,0.19,0.011,0.255,0.032
			L64.633,23.3c-0.093-0.018-0.14-0.022-0.252-0.022c-0.198,0-0.378,0.115-0.464,0.223v1.373H63.44V22.912z"/>
		<path fill="#FFFFFF" d="M64.82,24.328c0-0.493,0.446-0.593,0.809-0.597l0.388-0.004v-0.173c0-0.227-0.129-0.281-0.414-0.281
			c-0.187,0-0.403,0.05-0.546,0.086l-0.097-0.356c0.173-0.065,0.428-0.14,0.73-0.14c0.543,0,0.794,0.162,0.794,0.582v0.956
			c0,0.093,0.079,0.115,0.18,0.122l-0.022,0.367h-0.104c-0.209,0-0.435-0.05-0.478-0.223c-0.126,0.094-0.327,0.237-0.611,0.237
			C65.05,24.907,64.82,24.706,64.82,24.328z M66.018,24.407v-0.388l-0.363,0.014c-0.226,0.004-0.37,0.097-0.37,0.259
			c0,0.173,0.122,0.237,0.273,0.237C65.723,24.53,65.917,24.44,66.018,24.407z"/>
		<path fill="#FFFFFF" d="M67.876,24.328c0-0.493,0.446-0.593,0.809-0.597l0.388-0.004v-0.173c0-0.227-0.129-0.281-0.413-0.281
			c-0.187,0-0.403,0.05-0.546,0.086l-0.097-0.356c0.173-0.065,0.428-0.14,0.73-0.14c0.543,0,0.794,0.162,0.794,0.582v0.956
			c0,0.093,0.079,0.115,0.18,0.122l-0.022,0.367h-0.104c-0.209,0-0.435-0.05-0.478-0.223c-0.126,0.094-0.327,0.237-0.611,0.237
			C68.106,24.907,67.876,24.706,67.876,24.328z M69.074,24.407v-0.388l-0.363,0.014c-0.226,0.004-0.37,0.097-0.37,0.259
			c0,0.173,0.122,0.237,0.273,0.237C68.779,24.53,68.973,24.44,69.074,24.407z"/>
		<path fill="#FFFFFF" d="M70.206,22.912h0.475v0.147c0.101-0.075,0.313-0.194,0.503-0.194c0.529,0,0.841,0.288,0.841,0.949
			c0,0.82-0.5,1.096-1.043,1.096c-0.119,0-0.219-0.011-0.302-0.018v0.773h-0.475V22.912z M71.54,23.854
			c0-0.374-0.126-0.586-0.492-0.586c-0.133,0-0.295,0.075-0.367,0.104v1.14c0.072,0.007,0.169,0.029,0.316,0.029
			C71.349,24.54,71.54,24.246,71.54,23.854z"/>
		<path fill="#FFFFFF" d="M72.482,22.912h0.478v0.262c0.094-0.133,0.284-0.302,0.529-0.302c0.112,0,0.19,0.011,0.255,0.032
			L73.675,23.3c-0.094-0.018-0.14-0.022-0.252-0.022c-0.198,0-0.377,0.115-0.464,0.223v1.373h-0.478V22.912z"/>
		<path fill="#FFFFFF" d="M73.844,23.926c0-0.802,0.406-1.061,0.96-1.061c0.568,0,0.798,0.374,0.798,0.989v0.173h-1.28
			c0,0.431,0.27,0.503,0.618,0.503c0.136,0,0.37-0.047,0.532-0.079l0.075,0.37c-0.162,0.05-0.424,0.097-0.694,0.097
			C74.236,24.918,73.844,24.695,73.844,23.926z M75.11,23.706c0.004-0.295-0.115-0.5-0.352-0.5c-0.241,0-0.403,0.176-0.424,0.5
			H75.11z"/>
		<path fill="#FFFFFF" d="M76.052,22.912h0.478v0.209c0.144-0.104,0.384-0.259,0.658-0.259c0.6,0,0.64,0.363,0.64,0.769v1.244
			h-0.475v-1.19c0-0.298-0.058-0.406-0.32-0.406c-0.198,0-0.385,0.09-0.503,0.155v1.442h-0.478V22.912z"/>
		<path fill="#FFFFFF" d="M78.277,23.875c0-0.676,0.453-1.014,1.014-1.014c0.136,0,0.219,0.014,0.309,0.032v-0.73h0.478v2.711H79.6
			v-0.158c-0.097,0.083-0.23,0.191-0.467,0.191C78.755,24.907,78.277,24.735,78.277,23.875z M79.6,24.382v-1.1
			c-0.072-0.018-0.162-0.04-0.302-0.04c-0.388,0-0.543,0.277-0.543,0.644c0,0.467,0.205,0.622,0.46,0.622
			C79.356,24.508,79.514,24.429,79.6,24.382z"/>
		<path fill="#FFFFFF" d="M80.539,23.926c0-0.802,0.406-1.061,0.96-1.061c0.568,0,0.798,0.374,0.798,0.989v0.173h-1.28
			c0,0.431,0.27,0.503,0.618,0.503c0.136,0,0.37-0.047,0.532-0.079l0.075,0.37c-0.162,0.05-0.424,0.097-0.694,0.097
			C80.931,24.918,80.539,24.695,80.539,23.926z M81.804,23.706c0.004-0.295-0.115-0.5-0.352-0.5c-0.241,0-0.403,0.176-0.424,0.5
			H81.804z"/>
		<path fill="#FFFFFF" d="M82.746,22.912h0.478v0.262c0.094-0.133,0.284-0.302,0.529-0.302c0.112,0,0.19,0.011,0.255,0.032
			L83.94,23.3c-0.094-0.018-0.14-0.022-0.252-0.022c-0.198,0-0.377,0.115-0.464,0.223v1.373h-0.478V22.912z"/>
	</g>
	<g>
		<path fill="#FFFFFF" d="M38.209,12.721h1.273v6.618h-1.273V12.721z"/>
		<path fill="#FFFFFF" d="M41.092,14.228h1.245v0.543c0.374-0.271,1.002-0.674,1.713-0.674c1.563,0,1.666,0.945,1.666,2.003v3.239
			h-1.236V16.24c0-0.777-0.15-1.058-0.833-1.058c-0.515,0-1.002,0.234-1.311,0.403v3.754h-1.245V14.228z"/>
		<path fill="#FFFFFF" d="M51.914,15.295H51.08c0.028,0.094,0.103,0.412,0.103,0.646c0,1.03-0.955,1.648-2.069,1.648
			c-0.346,0-0.693-0.037-0.992-0.131l-0.009,0.646h1.357c1.385,0,2.078,0.496,2.078,1.47c0,1.002-0.87,1.9-2.565,1.9
			c-1.535,0-2.209-0.44-2.209-1.329c0-0.393,0.3-0.814,0.702-1.105c-0.253-0.122-0.346-0.412-0.346-0.627
			c0.009-0.393,0.281-0.908,0.477-1.151c-0.337-0.234-0.599-0.711-0.599-1.282c0-0.983,0.758-1.797,2.059-1.797
			c0.702,0,1.123,0.197,1.273,0.29l1.573-0.094V15.295z M50.575,19.741c0-0.403-0.384-0.608-1.011-0.608h-1.432
			c-0.187,0.262-0.262,0.505-0.262,0.711c0,0.412,0.459,0.711,1.357,0.711C49.995,20.556,50.575,20.163,50.575,19.741z
			 M50.041,15.922c0-0.505-0.337-0.936-0.917-0.936c-0.655,0-0.983,0.384-0.983,0.974c0,0.534,0.356,0.88,0.955,0.88
			C49.667,16.839,50.041,16.437,50.041,15.922z"/>
		<path fill="#FFFFFF" d="M52.41,16.868c0-2.087,1.058-2.761,2.499-2.761c1.479,0,2.078,0.973,2.078,2.574v0.449h-3.333
			c0,1.123,0.702,1.311,1.61,1.311c0.356,0,0.964-0.122,1.385-0.206l0.197,0.964c-0.421,0.131-1.105,0.253-1.807,0.253
			C53.43,19.451,52.41,18.871,52.41,16.868z M55.705,16.297c0.009-0.768-0.3-1.301-0.917-1.301c-0.627,0-1.048,0.459-1.105,1.301
			H55.705z"/>
		<path fill="#FFFFFF" d="M58.139,14.228h1.245v0.543c0.374-0.271,1.002-0.674,1.713-0.674c1.563,0,1.666,0.945,1.666,2.003v3.239
			h-1.236V16.24c0-0.777-0.15-1.058-0.833-1.058c-0.515,0-1.001,0.234-1.311,0.403v3.754h-1.245V14.228z"/>
		<path fill="#FFFFFF" d="M64.214,12.028h1.245v1.198h-1.245V12.028z M64.223,14.228h1.245v5.111h-1.245V14.228z"/>
		<path fill="#FFFFFF" d="M66.648,16.83c0-1.722,1.03-2.733,2.546-2.733c1.704,0,2.49,1.001,2.49,2.686
			c0,1.76-1.086,2.668-2.565,2.668C67.537,19.451,66.648,18.459,66.648,16.83z M70.42,16.783c0-0.871-0.243-1.694-1.254-1.694
			c-0.992,0-1.264,0.824-1.264,1.704c0,0.945,0.309,1.657,1.283,1.657C70.177,18.45,70.42,17.71,70.42,16.783z"/>
		<path fill="#FFFFFF" d="M76.215,13.741h-2.144v-1.02h5.57v1.02h-2.144v5.598h-1.283V13.741z"/>
		<path fill="#FFFFFF" d="M79.276,14.228h1.348l0.936,3.052l0.29,1.048l0.318-1.058l1.048-3.042h1.301l-1.919,5.111h-1.554
			L79.276,14.228z"/>
	</g>
</g>
</svg>
