<?xml version="1.0" encoding="utf-8"?>
<!-- Generator: Adobe Illustrator 17.0.0, SVG Export Plug-In . SVG Version: 6.00 Build 0)  -->
<!DOCTYPE svg PUBLIC "-//W3C//DTD SVG 1.1//EN" "http://www.w3.org/Graphics/SVG/1.1/DTD/svg11.dtd">
<svg version="1.1" id="Layer_1" xmlns="http://www.w3.org/2000/svg" xmlns:xlink="http://www.w3.org/1999/xlink" x="0px" y="0px"
	 width="100px" height="27.288px" viewBox="0 0 100 27.288" enable-background="new 0 0 100 27.288" xml:space="preserve">
<g>
	<g>
		<path fill="#FFFFFF" d="M12.26,18.307l-0.001-0.001c-0.188,0.479-0.658,0.818-1.211,0.818c-0.427,0-0.806-0.204-1.041-0.518
			h-0.001l-3.864-5.125l0.005-0.004c-0.16-0.213-0.255-0.474-0.255-0.759c0-0.703,0.581-1.276,1.298-1.276
			c0.428,0,0.807,0.205,1.042,0.519l0.003-0.002l2.489,3.3c0.924-2.106,2.293-4.907,4.066-7.667c0,0-0.001,0-0.001-0.001
			c0.003-0.004,0.007-0.009,0.009-0.013c-1.118-0.454-2.34-0.707-3.621-0.707c-5.321,0-9.633,4.313-9.633,9.633
			c0,5.32,4.312,9.633,9.633,9.633c5.319,0,9.632-4.313,9.632-9.633c0-3.115-1.479-5.882-3.773-7.643
			c0,0.002-0.002,0.003-0.003,0.005C14.651,12.551,13.023,16.363,12.26,18.307z"/>
		<path fill="#FFFFFF" d="M20.625,1.136c-0.346,0-0.662,0.135-0.895,0.353H19.73c-1.883,1.762-3.534,3.912-4.933,6.088h0.001
			c0.001-0.001,0.001-0.002,0.002-0.003c0.02,0.008,0.039,0.019,0.059,0.027c0.784,0.325,1.514,0.75,2.177,1.259
			c1.286-1.988,2.788-3.936,4.485-5.525V3.335c0.248-0.233,0.403-0.559,0.403-0.922C21.923,1.707,21.343,1.136,20.625,1.136z"/>
	</g>
	<g>
		<path fill="#FFFFFF" d="M32.201,18.854h2.431v0.791h-1.541v0.933h1.425v0.737h-1.425v0.951h1.661v0.791h-2.552V18.854z"/>
		<path fill="#FFFFFF" d="M35.449,18.854h1.326c1.284,0,2.164,0.624,2.164,2.086c0,1.456-0.796,2.116-2.133,2.116h-1.357V18.854z
			 M36.864,22.266c0.854,0,1.184-0.44,1.184-1.266c0-0.904-0.398-1.355-1.289-1.355h-0.424v2.621H36.864z"/>
		<path fill="#FFFFFF" d="M39.583,21.344v-2.49h0.901v2.455c0,0.642,0.257,0.999,0.823,0.999c0.561,0,0.823-0.375,0.823-1.123v-2.33
			h0.875v2.348c0,1.468-0.87,1.932-1.698,1.932C40.453,23.133,39.583,22.705,39.583,21.344z"/>
		<path fill="#FFFFFF" d="M43.57,22.824l0.252-0.725c0.33,0.131,0.571,0.19,0.98,0.19c0.445,0,0.65-0.155,0.65-0.41
			c0-0.683-1.761-0.499-1.761-1.926c0-0.808,0.676-1.159,1.331-1.159c0.587,0,0.87,0.143,1.158,0.285l-0.257,0.701
			c-0.272-0.089-0.498-0.172-0.875-0.172c-0.372,0-0.487,0.16-0.487,0.339c0,0.559,1.792,0.559,1.792,1.896
			c0,0.921-0.775,1.278-1.54,1.278C44.204,23.121,43.848,22.997,43.57,22.824z"/>
		<path fill="#FFFFFF" d="M48.071,18.854h1.148l1.247,4.202h-0.922l-0.351-1.23H47.94l-0.403,1.23h-0.891L48.071,18.854z
			 M48.983,21.095l-0.372-1.617l-0.435,1.617H48.983z"/>
		<path fill="#FFFFFF" d="M51.346,19.644h-1.163v-0.791H53.4v0.791h-1.163v3.412h-0.891V19.644z"/>
	</g>
	<g>
		<path fill="#FFFFFF" d="M26.003,23.056V19.49h-0.85v-0.622c0.431-0.012,1.215-0.036,1.645-0.048v4.237H26.003z"/>
		<path fill="#FFFFFF" d="M28.172,23.188l-0.683-0.311l1.741-3.381h-1.933v-0.67h2.741v0.556L28.172,23.188z"/>
	</g>
	<g>
		<path fill="#FFFFFF" d="M25.691,9.879h-2.144v-1.02h5.57v1.02h-2.144v5.598h-1.282V9.879z"/>
		<path fill="#FFFFFF" d="M29.155,13.005c0-2.087,1.058-2.761,2.499-2.761c1.479,0,2.078,0.974,2.078,2.574v0.449H30.4
			c0,1.123,0.702,1.311,1.61,1.311c0.356,0,0.964-0.122,1.385-0.206l0.197,0.964c-0.421,0.131-1.105,0.253-1.807,0.253
			C30.175,15.589,29.155,15.008,29.155,13.005z M32.45,12.434c0.009-0.768-0.3-1.301-0.917-1.301c-0.627,0-1.048,0.459-1.105,1.301
			H32.45z"/>
		<path fill="#FFFFFF" d="M34.884,8.418h1.245v7.058h-1.245V8.418z"/>
		<path fill="#FFFFFF" d="M37.308,13.005c0-2.087,1.058-2.761,2.499-2.761c1.479,0,2.078,0.974,2.078,2.574v0.449h-3.332
			c0,1.123,0.702,1.311,1.61,1.311c0.356,0,0.964-0.122,1.385-0.206l0.197,0.964c-0.421,0.131-1.105,0.253-1.807,0.253
			C38.328,15.589,37.308,15.008,37.308,13.005z M40.603,12.434c0.009-0.768-0.3-1.301-0.917-1.301c-0.627,0-1.048,0.459-1.105,1.301
			H40.603z"/>
		<path fill="#FFFFFF" d="M43.037,15.27V8.418h1.236v2.041c0.393-0.131,0.842-0.225,1.189-0.225c1.451,0,2.312,0.73,2.312,2.434
			c0,2.181-1.311,2.902-2.715,2.902C43.982,15.57,43.477,15.411,43.037,15.27z M44.273,11.367v3.108
			c0.206,0.047,0.449,0.112,0.814,0.112c0.917,0,1.413-0.824,1.413-1.853c0-1.002-0.281-1.554-1.264-1.554
			C44.881,11.18,44.535,11.273,44.273,11.367z"/>
		<path fill="#FFFFFF" d="M48.457,14.054c0-1.282,1.161-1.545,2.106-1.554l1.011-0.009v-0.449c0-0.59-0.337-0.73-1.077-0.73
			c-0.487,0-1.048,0.131-1.423,0.225l-0.253-0.927c0.449-0.168,1.114-0.365,1.9-0.365c1.413,0,2.069,0.421,2.069,1.516v2.49
			c0,0.243,0.206,0.3,0.468,0.318l-0.056,0.955h-0.271c-0.543,0-1.133-0.131-1.245-0.58c-0.328,0.243-0.852,0.618-1.591,0.618
			C49.056,15.561,48.457,15.036,48.457,14.054z M51.574,14.259v-1.011l-0.945,0.037c-0.59,0.009-0.964,0.253-0.964,0.674
			c0,0.449,0.318,0.618,0.711,0.618C50.807,14.578,51.312,14.344,51.574,14.259z"/>
		<path fill="#FFFFFF" d="M54.195,12.893c0-1.619,1.011-2.659,2.64-2.659c0.73,0,1.189,0.14,1.545,0.328l-0.337,0.927
			c-0.365-0.14-0.627-0.225-1.17-0.225c-0.768,0-1.404,0.459-1.404,1.629c0,1.133,0.318,1.666,1.638,1.666
			c0.421,0,0.711-0.075,1.048-0.131l0.178,0.964c-0.412,0.094-0.749,0.178-1.311,0.178C54.991,15.57,54.195,14.784,54.195,12.893z"
			/>
		<path fill="#FFFFFF" d="M59.419,8.418h1.245v2.49c0.328-0.243,0.992-0.683,1.713-0.683c1.563,0,1.657,0.955,1.657,2.003v3.248
			h-1.226v-3.108c0-0.777-0.15-1.058-0.833-1.058c-0.515,0-1.067,0.29-1.311,0.412v3.754h-1.245V8.418z"/>
		<path fill="#FFFFFF" d="M65.494,8.166h1.245v1.198h-1.245V8.166z M65.503,10.365h1.245v5.111h-1.245V10.365z"/>
		<path fill="#FFFFFF" d="M68.237,8.418h1.245v7.058h-1.245V8.418z"/>
		<path fill="#FFFFFF" d="M70.97,8.418h1.245v7.058H70.97V8.418z"/>
		<path fill="#FFFFFF" d="M73.394,13.005c0-2.087,1.058-2.761,2.499-2.761c1.479,0,2.078,0.974,2.078,2.574v0.449h-3.332
			c0,1.123,0.702,1.311,1.61,1.311c0.356,0,0.964-0.122,1.385-0.206l0.197,0.964c-0.421,0.131-1.105,0.253-1.807,0.253
			C74.415,15.589,73.394,15.008,73.394,13.005z M76.689,12.434c0.009-0.768-0.3-1.301-0.917-1.301c-0.627,0-1.048,0.459-1.105,1.301
			H76.689z"/>
		<path fill="#FFFFFF" d="M79.123,10.365h1.245v0.683c0.243-0.346,0.74-0.786,1.376-0.786c0.29,0,0.496,0.028,0.665,0.084
			l-0.178,1.03c-0.243-0.047-0.365-0.056-0.655-0.056c-0.515,0-0.983,0.3-1.208,0.58v3.576h-1.245V10.365z"/>
		<path fill="#FFFFFF" d="M82.699,14.054c0-1.282,1.161-1.545,2.106-1.554l1.011-0.009v-0.449c0-0.59-0.337-0.73-1.076-0.73
			c-0.487,0-1.048,0.131-1.423,0.225l-0.253-0.927c0.449-0.168,1.114-0.365,1.9-0.365c1.413,0,2.069,0.421,2.069,1.516v2.49
			c0,0.243,0.206,0.3,0.468,0.318l-0.056,0.955h-0.271c-0.543,0-1.133-0.131-1.245-0.58c-0.328,0.243-0.852,0.618-1.591,0.618
			C83.298,15.561,82.699,15.036,82.699,14.054z M85.816,14.259v-1.011l-0.945,0.037c-0.59,0.009-0.964,0.253-0.964,0.674
			c0,0.449,0.318,0.618,0.711,0.618C85.049,14.578,85.554,14.344,85.816,14.259z"/>
		<path fill="#FFFFFF" d="M88.934,13.951v-2.63h-0.749v-0.955h0.749V9.317h1.236v1.048h1.591v0.955h-1.591v2.621
			c0,0.515,0.169,0.58,0.721,0.58c0.318,0,0.945-0.103,0.992-0.112l0.14,0.992c-0.29,0.094-0.758,0.178-1.114,0.178
			C89.935,15.579,88.934,15.598,88.934,13.951z"/>
		<path fill="#FFFFFF" d="M92.65,12.968c0-1.722,1.03-2.733,2.546-2.733c1.704,0,2.49,1.002,2.49,2.687
			c0,1.76-1.086,2.668-2.565,2.668C93.539,15.589,92.65,14.596,92.65,12.968z M96.422,12.921c0-0.871-0.243-1.694-1.254-1.694
			c-0.992,0-1.264,0.824-1.264,1.704c0,0.945,0.309,1.657,1.282,1.657C96.179,14.587,96.422,13.848,96.422,12.921z"/>
	</g>
</g>
</svg>
