<?xml version="1.0" encoding="utf-8"?>
<!-- Generator: Adobe Illustrator 17.0.0, SVG Export Plug-In . SVG Version: 6.00 Build 0)  -->
<!DOCTYPE svg PUBLIC "-//W3C//DTD SVG 1.1//EN" "http://www.w3.org/Graphics/SVG/1.1/DTD/svg11.dtd">
<svg version="1.1" id="Layer_6" xmlns="http://www.w3.org/2000/svg" xmlns:xlink="http://www.w3.org/1999/xlink" x="0px" y="0px"
	 width="100px" height="27.288px" viewBox="0 0 100 27.288" enable-background="new 0 0 100 27.288" xml:space="preserve">
<g>
	<g>
		<path fill="#FFFFFF" d="M21.538,18.313l-0.001-0.001c-0.188,0.478-0.658,0.819-1.211,0.819c-0.428,0-0.807-0.204-1.042-0.518
			h-0.001l-3.865-5.127l0.005-0.004c-0.16-0.213-0.255-0.474-0.255-0.76c0-0.703,0.581-1.276,1.298-1.276
			c0.428,0,0.807,0.205,1.042,0.519l0.003-0.002l2.489,3.301c0.924-2.106,2.294-4.908,4.066-7.669l-0.001-0.001
			c0.003-0.004,0.007-0.009,0.01-0.013c-1.118-0.454-2.34-0.707-3.622-0.707c-5.322,0-9.635,4.314-9.635,9.635
			c0,5.321,4.313,9.635,9.635,9.635c5.321,0,9.635-4.314,9.635-9.635c0-3.115-1.48-5.883-3.774-7.645
			c0,0.002-0.002,0.003-0.003,0.005C23.93,12.556,22.302,16.368,21.538,18.313z"/>
		<path fill="#FFFFFF" d="M29.906,1.144c-0.347,0-0.662,0.135-0.895,0.353h-0.001c-1.883,1.763-3.535,3.913-4.934,6.09h0.001
			c0.001-0.001,0.001-0.002,0.002-0.003c0.02,0.008,0.04,0.019,0.059,0.027c0.784,0.325,1.515,0.75,2.178,1.26
			c1.287-1.988,2.789-3.937,4.486-5.526V3.343c0.248-0.233,0.403-0.559,0.403-0.922C31.205,1.715,30.624,1.144,29.906,1.144z"/>
	</g>
	<g>
		<g>
			<path fill="#FFFFFF" d="M40.223,19.252h2.432v0.791h-1.541v0.933h1.426v0.737h-1.426v0.951h1.661v0.791h-2.552V19.252z"/>
			<path fill="#FFFFFF" d="M43.472,19.252h1.326c1.284,0,2.165,0.624,2.165,2.087c0,1.457-0.797,2.117-2.133,2.117h-1.358V19.252z
				 M44.888,22.665c0.854,0,1.185-0.44,1.185-1.266c0-0.904-0.398-1.355-1.289-1.355h-0.424v2.622H44.888z"/>
			<path fill="#FFFFFF" d="M47.607,21.744v-2.491h0.901v2.455c0,0.642,0.257,0.999,0.823,0.999c0.561,0,0.823-0.375,0.823-1.124
				v-2.33h0.875v2.348c0,1.469-0.87,1.932-1.698,1.932C48.478,23.533,47.607,23.105,47.607,21.744z"/>
			<path fill="#FFFFFF" d="M51.596,23.224l0.252-0.725c0.33,0.131,0.571,0.19,0.98,0.19c0.445,0,0.65-0.155,0.65-0.41
				c0-0.684-1.761-0.499-1.761-1.926c0-0.809,0.676-1.159,1.331-1.159c0.587,0,0.87,0.143,1.158,0.285l-0.257,0.702
				c-0.273-0.089-0.498-0.172-0.875-0.172c-0.372,0-0.488,0.161-0.488,0.339c0,0.559,1.793,0.559,1.793,1.897
				c0,0.921-0.776,1.278-1.541,1.278C52.23,23.521,51.874,23.396,51.596,23.224z"/>
			<path fill="#FFFFFF" d="M56.098,19.252h1.148l1.247,4.203H57.57l-0.351-1.231h-1.253l-0.404,1.231h-0.891L56.098,19.252z
				 M57.01,21.494l-0.372-1.617l-0.435,1.617H57.01z"/>
			<path fill="#FFFFFF" d="M59.373,20.043H58.21v-0.791h3.218v0.791h-1.163v3.413h-0.891V20.043z"/>
		</g>
		<g>
			<path fill="#FFFFFF" d="M33.43,23.456v-0.555c0.328-0.31,1.843-1.65,1.843-2.341c0-0.479-0.246-0.638-0.637-0.638
				c-0.422,0-0.655,0.112-0.831,0.188l-0.252-0.544c0.252-0.146,0.538-0.293,1.159-0.293c1.129,0,1.346,0.673,1.346,1.24
				c0,0.871-0.865,1.639-1.633,2.306h1.814v0.638H33.43z"/>
			<path fill="#FFFFFF" d="M37.283,23.456v-3.487h-0.831v-0.608c0.421-0.012,1.188-0.036,1.609-0.047v4.142H37.283z"/>
		</g>
	</g>
	<g>
		<path fill="#FFFFFF" d="M34.918,10.329h-2.144V9.309h5.571v1.021h-2.144v5.599h-1.283V10.329z"/>
		<path fill="#FFFFFF" d="M38.383,13.457c0-2.088,1.058-2.762,2.5-2.762c1.479,0,2.079,0.974,2.079,2.575v0.449h-3.333
			c0,1.124,0.702,1.311,1.61,1.311c0.356,0,0.965-0.122,1.386-0.206l0.197,0.964c-0.421,0.131-1.105,0.253-1.807,0.253
			C39.403,16.041,38.383,15.46,38.383,13.457z M41.679,12.886c0.009-0.768-0.3-1.301-0.918-1.301c-0.627,0-1.049,0.459-1.105,1.301
			H41.679z"/>
		<path fill="#FFFFFF" d="M44.113,8.869h1.245v7.06h-1.245V8.869z"/>
		<path fill="#FFFFFF" d="M46.538,13.457c0-2.088,1.058-2.762,2.5-2.762c1.479,0,2.079,0.974,2.079,2.575v0.449h-3.333
			c0,1.124,0.702,1.311,1.61,1.311c0.356,0,0.964-0.122,1.386-0.206l0.197,0.964c-0.421,0.131-1.105,0.253-1.807,0.253
			C47.559,16.041,46.538,15.46,46.538,13.457z M49.834,12.886c0.009-0.768-0.3-1.301-0.918-1.301c-0.627,0-1.049,0.459-1.105,1.301
			H49.834z"/>
		<path fill="#FFFFFF" d="M54.618,9.309h1.629l1.966,5.562l2.238-5.562h1.564v6.62h-1.283v-3.324l0.037-1.358l-1.826,4.682h-1.526
			l-1.61-4.747l0.084,1.423v3.324h-1.273V9.309z"/>
		<path fill="#FFFFFF" d="M63.308,13.457c0-2.088,1.058-2.762,2.5-2.762c1.479,0,2.079,0.974,2.079,2.575v0.449h-3.333
			c0,1.124,0.702,1.311,1.61,1.311c0.356,0,0.964-0.122,1.386-0.206l0.197,0.964c-0.421,0.131-1.105,0.253-1.807,0.253
			C64.328,16.041,63.308,15.46,63.308,13.457z M66.604,12.886c0.009-0.768-0.3-1.301-0.918-1.301c-0.627,0-1.049,0.459-1.105,1.301
			H66.604z M64.637,9.468l2.051-1.161l0.44,0.89l-2.116,1.039L64.637,9.468z"/>
		<path fill="#FFFFFF" d="M70.265,13.316l-1.723-2.5h1.442l0.993,1.713l1.002-1.713h1.414l-1.713,2.491l1.863,2.622h-1.498
			l-1.067-1.826l-1.086,1.826h-1.47L70.265,13.316z"/>
		<path fill="#FFFFFF" d="M74.403,8.616h1.245v1.198h-1.245V8.616z M74.413,10.816h1.245v5.112h-1.245V10.816z"/>
		<path fill="#FFFFFF" d="M76.838,13.344c0-1.62,1.011-2.659,2.64-2.659c0.73,0,1.189,0.14,1.545,0.328l-0.337,0.927
			c-0.365-0.14-0.627-0.225-1.17-0.225c-0.768,0-1.404,0.459-1.404,1.629c0,1.133,0.318,1.667,1.639,1.667
			c0.421,0,0.712-0.075,1.049-0.131l0.178,0.964c-0.412,0.094-0.749,0.178-1.311,0.178C77.634,16.022,76.838,15.236,76.838,13.344z"
			/>
		<path fill="#FFFFFF" d="M81.753,13.419c0-1.723,1.03-2.734,2.547-2.734c1.704,0,2.491,1.002,2.491,2.687
			c0,1.76-1.086,2.669-2.566,2.669C82.643,16.041,81.753,15.048,81.753,13.419z M85.527,13.372c0-0.871-0.243-1.695-1.255-1.695
			c-0.993,0-1.264,0.824-1.264,1.704c0,0.946,0.309,1.657,1.283,1.657C85.283,15.039,85.527,14.299,85.527,13.372z"/>
	</g>
</g>
</svg>
