<?xml version="1.0" encoding="utf-8"?>
<!-- Generator: Adobe Illustrator 17.0.0, SVG Export Plug-In . SVG Version: 6.00 Build 0)  -->
<!DOCTYPE svg PUBLIC "-//W3C//DTD SVG 1.1//EN" "http://www.w3.org/Graphics/SVG/1.1/DTD/svg11.dtd">
<svg version="1.1" id="Layer_4" xmlns="http://www.w3.org/2000/svg" xmlns:xlink="http://www.w3.org/1999/xlink" x="0px" y="0px"
	 width="100px" height="27.288px" viewBox="0 0 100 27.288" enable-background="new 0 0 100 27.288" xml:space="preserve">
<g>
	<g>
		<path fill="#FFFFFF" d="M95.061,10.489l-1.919,0.009V9.534l1.919,0.028V7.605h0.974L95.997,9.58L98,9.534v0.964l-1.984-0.009
			l0.018,1.928h-0.974V10.489z"/>
	</g>
	<g>
		<path fill="#FFFFFF" d="M12.512,18.458l-0.001-0.001c-0.188,0.479-0.658,0.818-1.211,0.818c-0.427,0-0.806-0.204-1.041-0.517
			h-0.001l-3.864-5.126l0.005-0.004c-0.16-0.213-0.255-0.474-0.255-0.759c0-0.704,0.581-1.276,1.298-1.276
			c0.428,0,0.807,0.205,1.042,0.519l0.003-0.002l2.489,3.299c0.924-2.106,2.293-4.906,4.066-7.667c0,0-0.001,0-0.001-0.001
			c0.003-0.004,0.007-0.009,0.009-0.013c-1.118-0.454-2.34-0.707-3.621-0.707c-5.321,0-9.633,4.312-9.633,9.632
			c0,5.32,4.312,9.633,9.633,9.633c5.319,0,9.632-4.313,9.632-9.633c0-3.114-1.479-5.882-3.773-7.643
			c0,0.002-0.002,0.003-0.003,0.005C14.903,12.703,13.275,16.514,12.512,18.458z"/>
		<path fill="#FFFFFF" d="M20.877,1.288c-0.346,0-0.662,0.135-0.895,0.352h-0.001c-1.883,1.762-3.534,3.912-4.933,6.089h0.001
			c0.001-0.001,0.001-0.002,0.002-0.003c0.02,0.008,0.039,0.019,0.059,0.027c0.784,0.325,1.514,0.75,2.177,1.259
			c1.286-1.988,2.788-3.936,4.485-5.525V3.486c0.248-0.233,0.403-0.559,0.403-0.922C22.176,1.858,21.595,1.288,20.877,1.288z"/>
	</g>
	<g>
		<path fill="#FFFFFF" d="M32.383,19.323h2.431v0.791h-1.541v0.933h1.425v0.737h-1.425v0.951h1.661v0.791h-2.552V19.323z"/>
		<path fill="#FFFFFF" d="M35.631,19.323h1.326c1.284,0,2.164,0.624,2.164,2.086c0,1.456-0.796,2.116-2.133,2.116h-1.357V19.323z
			 M37.046,22.735c0.854,0,1.184-0.44,1.184-1.266c0-0.904-0.398-1.355-1.289-1.355h-0.425v2.621H37.046z"/>
		<path fill="#FFFFFF" d="M39.765,21.814v-2.491h0.901v2.455c0,0.642,0.257,0.999,0.823,0.999c0.561,0,0.823-0.375,0.823-1.124
			v-2.33h0.875v2.348c0,1.468-0.87,1.932-1.698,1.932C40.635,23.603,39.765,23.175,39.765,21.814z"/>
		<path fill="#FFFFFF" d="M43.753,23.294l0.252-0.725c0.33,0.131,0.571,0.19,0.98,0.19c0.446,0,0.65-0.155,0.65-0.41
			c0-0.683-1.761-0.499-1.761-1.926c0-0.809,0.676-1.159,1.331-1.159c0.587,0,0.87,0.143,1.158,0.285l-0.257,0.701
			c-0.272-0.089-0.498-0.172-0.875-0.172c-0.372,0-0.487,0.161-0.487,0.339c0,0.559,1.792,0.559,1.792,1.896
			c0,0.921-0.775,1.278-1.54,1.278C44.387,23.591,44.031,23.466,43.753,23.294z"/>
		<path fill="#FFFFFF" d="M48.254,19.323h1.148l1.247,4.202h-0.922l-0.351-1.23h-1.252l-0.403,1.23h-0.891L48.254,19.323z
			 M49.166,21.564l-0.372-1.617l-0.435,1.617H49.166z"/>
		<path fill="#FFFFFF" d="M51.528,20.114h-1.163v-0.791h3.217v0.791h-1.163v3.412h-0.891V20.114z"/>
	</g>
	<g>
		<path fill="#FFFFFF" d="M24.38,23.549v-0.564c0.331-0.314,1.868-1.673,1.868-2.372c0-0.487-0.249-0.647-0.646-0.647
			c-0.427,0-0.664,0.113-0.842,0.19l-0.255-0.552c0.255-0.148,0.546-0.296,1.175-0.296c1.144,0,1.363,0.682,1.363,1.258
			c0,0.884-0.878,1.661-1.654,2.337h1.839v0.646H24.38z"/>
		<path fill="#FFFFFF" d="M28.374,23.68l-0.677-0.309l1.726-3.352h-1.915v-0.664h2.716v0.552L28.374,23.68z"/>
	</g>
	<g>
		<path fill="#FFFFFF" d="M25.925,10.367h-2.144v-1.02h5.57v1.02h-2.144v5.598h-1.282V10.367z"/>
		<path fill="#FFFFFF" d="M29.389,13.494c0-2.088,1.058-2.761,2.499-2.761c1.479,0,2.078,0.974,2.078,2.574v0.449h-3.333
			c0,1.123,0.702,1.31,1.61,1.31c0.356,0,0.964-0.122,1.385-0.206l0.197,0.964c-0.421,0.131-1.105,0.253-1.807,0.253
			C30.409,16.078,29.389,15.497,29.389,13.494z M32.684,12.923c0.009-0.768-0.3-1.301-0.917-1.301c-0.627,0-1.048,0.459-1.105,1.301
			H32.684z"/>
		<path fill="#FFFFFF" d="M35.118,8.907h1.245v7.058h-1.245V8.907z"/>
		<path fill="#FFFFFF" d="M37.542,13.494c0-2.088,1.058-2.761,2.499-2.761c1.479,0,2.078,0.974,2.078,2.574v0.449h-3.333
			c0,1.123,0.702,1.31,1.61,1.31c0.356,0,0.964-0.122,1.385-0.206l0.197,0.964c-0.421,0.131-1.105,0.253-1.807,0.253
			C38.562,16.078,37.542,15.497,37.542,13.494z M40.837,12.923c0.009-0.768-0.3-1.301-0.917-1.301c-0.627,0-1.048,0.459-1.105,1.301
			H40.837z"/>
		<path fill="#FFFFFF" d="M42.934,15.862l0.15-0.964c0.534,0.084,1.058,0.168,1.451,0.168c0.796,0,1.03-0.243,1.03-0.524
			c0-0.786-2.574-0.477-2.574-2.284c0-1.03,0.936-1.535,2.003-1.535c0.599,0,1.142,0.122,1.535,0.262l-0.206,0.927
			c-0.403-0.094-0.786-0.187-1.329-0.187c-0.571,0-0.758,0.253-0.758,0.468c0,0.814,2.556,0.59,2.556,2.284
			c0,1.282-1.282,1.601-2.134,1.601C43.936,16.078,43.365,15.984,42.934,15.862z"/>
		<path fill="#FFFFFF" d="M47.614,13.494c0-2.088,1.058-2.761,2.499-2.761c1.479,0,2.078,0.974,2.078,2.574v0.449h-3.333
			c0,1.123,0.702,1.31,1.61,1.31c0.356,0,0.964-0.122,1.385-0.206l0.197,0.964c-0.421,0.131-1.105,0.253-1.807,0.253
			C48.635,16.078,47.614,15.497,47.614,13.494z M50.91,12.923c0.009-0.768-0.3-1.301-0.917-1.301c-0.627,0-1.048,0.459-1.105,1.301
			H50.91z"/>
		<path fill="#FFFFFF" d="M53.034,13.382c0-1.619,1.011-2.659,2.64-2.659c0.73,0,1.189,0.14,1.545,0.328l-0.337,0.927
			c-0.365-0.14-0.627-0.225-1.17-0.225c-0.768,0-1.404,0.459-1.404,1.629c0,1.133,0.318,1.666,1.638,1.666
			c0.421,0,0.711-0.075,1.048-0.131l0.178,0.964c-0.412,0.094-0.749,0.178-1.311,0.178C53.83,16.059,53.034,15.273,53.034,13.382z"
			/>
		<path fill="#FFFFFF" d="M58.239,14.065v-3.211h1.245v3.07c0,0.74,0.122,1.058,0.796,1.058c0.534,0,1.086-0.271,1.329-0.403v-3.726
			h1.245v5.111h-1.245v-0.552c-0.337,0.243-0.992,0.664-1.722,0.664C58.351,16.078,58.239,15.114,58.239,14.065z"/>
		<path fill="#FFFFFF" d="M64.333,10.854h1.245v0.543c0.374-0.271,1.002-0.674,1.713-0.674c1.563,0,1.666,0.945,1.666,2.003v3.239
			h-1.236v-3.098c0-0.777-0.15-1.058-0.833-1.058c-0.515,0-1.002,0.234-1.311,0.403v3.754h-1.245V10.854z"/>
		<path fill="#FFFFFF" d="M70.109,13.363c0-1.76,1.179-2.64,2.64-2.64c0.356,0,0.571,0.037,0.805,0.084v-1.9h1.245v7.058h-1.245
			v-0.412c-0.253,0.215-0.599,0.496-1.217,0.496C71.354,16.05,70.109,15.6,70.109,13.363z M73.554,14.683v-2.864
			c-0.187-0.047-0.421-0.103-0.786-0.103c-1.011,0-1.414,0.721-1.414,1.676c0,1.217,0.534,1.619,1.198,1.619
			C72.917,15.01,73.329,14.805,73.554,14.683z"/>
		<path fill="#FFFFFF" d="M75.932,14.542c0-1.282,1.161-1.545,2.106-1.554l1.011-0.009V12.53c0-0.59-0.337-0.73-1.077-0.73
			c-0.487,0-1.048,0.131-1.423,0.225l-0.253-0.927c0.449-0.168,1.114-0.365,1.9-0.365c1.414,0,2.069,0.421,2.069,1.516v2.49
			c0,0.243,0.206,0.3,0.468,0.318l-0.056,0.955h-0.271c-0.543,0-1.133-0.131-1.245-0.58c-0.328,0.243-0.852,0.618-1.591,0.618
			C76.531,16.05,75.932,15.525,75.932,14.542z M79.049,14.748v-1.011l-0.945,0.037c-0.59,0.009-0.964,0.253-0.964,0.674
			c0,0.449,0.318,0.618,0.711,0.618C78.281,15.067,78.787,14.833,79.049,14.748z"/>
		<path fill="#FFFFFF" d="M81.979,10.854h1.245v0.683c0.243-0.346,0.74-0.786,1.376-0.786c0.29,0,0.496,0.028,0.665,0.084
			l-0.178,1.03c-0.243-0.047-0.365-0.056-0.655-0.056c-0.515,0-0.983,0.3-1.208,0.58v3.576h-1.245V10.854z"/>
		<path fill="#FFFFFF" d="M85.948,8.654h1.245v1.198h-1.245V8.654z M85.957,10.854h1.245v5.111h-1.245V10.854z"/>
		<path fill="#FFFFFF" d="M88.335,14.542c0-1.282,1.161-1.545,2.106-1.554l1.011-0.009V12.53c0-0.59-0.337-0.73-1.077-0.73
			c-0.487,0-1.048,0.131-1.423,0.225L88.7,11.098c0.449-0.168,1.114-0.365,1.9-0.365c1.414,0,2.069,0.421,2.069,1.516v2.49
			c0,0.243,0.206,0.3,0.468,0.318l-0.056,0.955H92.81c-0.543,0-1.133-0.131-1.245-0.58c-0.328,0.243-0.852,0.618-1.591,0.618
			C88.934,16.05,88.335,15.525,88.335,14.542z M91.452,14.748v-1.011l-0.945,0.037c-0.59,0.009-0.964,0.253-0.964,0.674
			c0,0.449,0.318,0.618,0.711,0.618C90.685,15.067,91.19,14.833,91.452,14.748z"/>
	</g>
</g>
</svg>
