<?xml version="1.0" encoding="utf-8"?>
<!-- Generator: Adobe Illustrator 17.0.0, SVG Export Plug-In . SVG Version: 6.00 Build 0)  -->
<!DOCTYPE svg PUBLIC "-//W3C//DTD SVG 1.1//EN" "http://www.w3.org/Graphics/SVG/1.1/DTD/svg11.dtd">
<svg version="1.1" id="Layer_3" xmlns="http://www.w3.org/2000/svg" xmlns:xlink="http://www.w3.org/1999/xlink" x="0px" y="0px"
	 width="100px" height="27.288px" viewBox="0 0 100 27.288" enable-background="new 0 0 100 27.288" xml:space="preserve">
<g>
	<g>
		<path fill="#FFFFFF" d="M14.183,18.301L14.183,18.3c-0.188,0.479-0.659,0.82-1.213,0.82c-0.428,0-0.808-0.205-1.043-0.518h-0.001
			l-3.871-5.135l0.005-0.004c-0.16-0.213-0.255-0.475-0.255-0.761c0-0.705,0.582-1.278,1.3-1.278c0.428,0,0.808,0.205,1.044,0.52
			l0.003-0.002l2.493,3.305c0.926-2.11,2.297-4.915,4.072-7.681c0,0-0.001,0-0.001-0.001c0.003-0.004,0.007-0.009,0.01-0.013
			c-1.12-0.455-2.344-0.708-3.627-0.708c-5.33,0-9.649,4.32-9.649,9.649c0,5.329,4.32,9.649,9.649,9.649
			c5.328,0,9.649-4.321,9.649-9.649c0-3.12-1.482-5.892-3.779-7.656c0,0.002-0.002,0.003-0.003,0.005
			C16.579,12.536,14.948,16.353,14.183,18.301z"/>
		<path fill="#FFFFFF" d="M22.564,1.144c-0.347,0-0.663,0.135-0.896,0.353h-0.001c-1.886,1.765-3.54,3.919-4.942,6.099h0.001
			c0.001-0.001,0.001-0.002,0.002-0.003c0.02,0.008,0.04,0.019,0.06,0.027c0.785,0.325,1.517,0.751,2.181,1.261
			c1.289-1.991,2.793-3.942,4.492-5.534V3.346c0.249-0.233,0.404-0.56,0.404-0.924C23.864,1.715,23.282,1.144,22.564,1.144z"/>
	</g>
	<g>
		<path fill="#FFFFFF" d="M27.643,19.811H26.7v-0.796l1.844-0.061v4.237h-0.902V19.811z"/>
		<path fill="#FFFFFF" d="M30.228,19.811h-0.942v-0.796l1.844-0.061v4.237h-0.902V19.811z"/>
	</g>
	<g>
		<path fill="#FFFFFF" d="M33.345,18.974h2.436v0.792h-1.543V20.7h1.428v0.738h-1.428v0.953h1.664v0.792h-2.556V18.974z"/>
		<path fill="#FFFFFF" d="M36.599,18.974h1.328c1.286,0,2.168,0.625,2.168,2.09c0,1.459-0.798,2.119-2.136,2.119h-1.359V18.974z
			 M38.016,22.391c0.856,0,1.186-0.441,1.186-1.268c0-0.905-0.399-1.358-1.291-1.358h-0.425v2.626H38.016z"/>
		<path fill="#FFFFFF" d="M40.74,21.468v-2.494h0.903v2.459c0,0.643,0.257,1,0.824,1c0.562,0,0.824-0.375,0.824-1.125v-2.334h0.877
			v2.352c0,1.471-0.871,1.935-1.701,1.935C41.612,23.261,40.74,22.832,40.74,21.468z"/>
		<path fill="#FFFFFF" d="M44.734,22.951l0.252-0.726c0.331,0.131,0.572,0.191,0.982,0.191c0.446,0,0.651-0.155,0.651-0.411
			c0-0.685-1.764-0.5-1.764-1.929c0-0.81,0.677-1.161,1.333-1.161c0.588,0,0.871,0.143,1.16,0.286l-0.257,0.703
			c-0.273-0.089-0.499-0.173-0.877-0.173c-0.373,0-0.488,0.161-0.488,0.339c0,0.56,1.795,0.56,1.795,1.899
			c0,0.923-0.777,1.28-1.543,1.28C45.37,23.249,45.013,23.124,44.734,22.951z"/>
		<path fill="#FFFFFF" d="M49.243,18.974h1.15l1.249,4.209h-0.924l-0.352-1.232h-1.254l-0.404,1.232h-0.892L49.243,18.974z
			 M50.156,21.218l-0.373-1.619l-0.436,1.619H50.156z"/>
		<path fill="#FFFFFF" d="M52.523,19.766h-1.165v-0.792h3.223v0.792h-1.165v3.417h-0.892V19.766z"/>
	</g>
	<g>
		<path fill="#FFFFFF" d="M27.583,10.05h-2.147V9.028h5.579v1.022h-2.147v5.607h-1.285V10.05z"/>
		<path fill="#FFFFFF" d="M31.053,13.182c0-2.091,1.059-2.766,2.503-2.766c1.482,0,2.082,0.975,2.082,2.579v0.45H32.3
			c0,1.125,0.703,1.313,1.613,1.313c0.356,0,0.966-0.122,1.388-0.206l0.197,0.966c-0.422,0.131-1.106,0.253-1.81,0.253
			C32.075,15.77,31.053,15.189,31.053,13.182z M34.353,12.61c0.009-0.769-0.3-1.303-0.919-1.303c-0.628,0-1.05,0.459-1.106,1.303
			H34.353z"/>
		<path fill="#FFFFFF" d="M36.791,8.587h1.247v7.07h-1.247V8.587z"/>
		<path fill="#FFFFFF" d="M39.22,13.182c0-2.091,1.06-2.766,2.504-2.766c1.482,0,2.082,0.975,2.082,2.579v0.45h-3.338
			c0,1.125,0.703,1.313,1.613,1.313c0.356,0,0.966-0.122,1.388-0.206l0.197,0.966c-0.422,0.131-1.106,0.253-1.81,0.253
			C40.242,15.77,39.22,15.189,39.22,13.182z M42.52,12.61c0.009-0.769-0.3-1.303-0.919-1.303c-0.628,0-1.05,0.459-1.106,1.303H42.52
			z"/>
		<path fill="#FFFFFF" d="M44.621,15.555l0.15-0.966c0.534,0.085,1.06,0.169,1.453,0.169c0.797,0,1.031-0.244,1.031-0.525
			c0-0.788-2.579-0.478-2.579-2.288c0-1.031,0.938-1.538,2.007-1.538c0.6,0,1.144,0.122,1.538,0.263l-0.206,0.928
			c-0.403-0.094-0.788-0.188-1.331-0.188c-0.572,0-0.76,0.253-0.76,0.469c0,0.816,2.56,0.591,2.56,2.288
			c0,1.284-1.285,1.603-2.138,1.603C45.624,15.77,45.052,15.676,44.621,15.555z"/>
		<path fill="#FFFFFF" d="M49.309,13.182c0-2.091,1.06-2.766,2.504-2.766c1.482,0,2.082,0.975,2.082,2.579v0.45h-3.338
			c0,1.125,0.703,1.313,1.613,1.313c0.356,0,0.966-0.122,1.388-0.206l0.197,0.966c-0.422,0.131-1.106,0.253-1.81,0.253
			C50.331,15.77,49.309,15.189,49.309,13.182z M52.61,12.61c0.009-0.769-0.3-1.303-0.919-1.303c-0.628,0-1.05,0.459-1.106,1.303
			H52.61z"/>
		<path fill="#FFFFFF" d="M54.738,13.07c0-1.622,1.013-2.663,2.644-2.663c0.731,0,1.191,0.141,1.547,0.328l-0.338,0.928
			c-0.366-0.141-0.628-0.225-1.172-0.225c-0.769,0-1.407,0.459-1.407,1.632c0,1.135,0.319,1.669,1.641,1.669
			c0.422,0,0.713-0.075,1.05-0.131l0.178,0.966c-0.413,0.094-0.75,0.178-1.313,0.178C55.535,15.751,54.738,14.964,54.738,13.07z"/>
		<path fill="#FFFFFF" d="M59.952,13.754v-3.216h1.247v3.076c0,0.741,0.122,1.06,0.797,1.06c0.534,0,1.088-0.272,1.332-0.403v-3.732
			h1.247v5.12h-1.247v-0.553c-0.338,0.244-0.994,0.666-1.725,0.666C60.064,15.77,59.952,14.804,59.952,13.754z"/>
		<path fill="#FFFFFF" d="M66.056,10.538h1.247v0.544c0.375-0.272,1.003-0.675,1.716-0.675c1.566,0,1.669,0.947,1.669,2.007v3.244
			h-1.238v-3.104c0-0.778-0.15-1.06-0.835-1.06c-0.516,0-1.003,0.234-1.313,0.403v3.76h-1.247V10.538z"/>
		<path fill="#FFFFFF" d="M71.842,13.051c0-1.763,1.181-2.644,2.644-2.644c0.356,0,0.572,0.038,0.806,0.084V8.587h1.247v7.07h-1.247
			v-0.413c-0.253,0.216-0.6,0.497-1.219,0.497C73.089,15.742,71.842,15.292,71.842,13.051z M75.292,14.373v-2.869
			c-0.188-0.047-0.422-0.103-0.788-0.103c-1.013,0-1.416,0.722-1.416,1.678c0,1.219,0.534,1.622,1.2,1.622
			C74.655,14.701,75.067,14.495,75.292,14.373z"/>
		<path fill="#FFFFFF" d="M77.674,14.232c0-1.285,1.163-1.547,2.11-1.557l1.013-0.009v-0.45c0-0.591-0.338-0.731-1.078-0.731
			c-0.488,0-1.05,0.131-1.425,0.225l-0.253-0.928c0.45-0.169,1.116-0.366,1.903-0.366c1.416,0,2.072,0.422,2.072,1.519v2.494
			c0,0.244,0.206,0.3,0.469,0.319l-0.056,0.956h-0.272c-0.544,0-1.135-0.131-1.247-0.581c-0.328,0.244-0.853,0.619-1.594,0.619
			C78.274,15.742,77.674,15.217,77.674,14.232z M80.797,14.439v-1.013l-0.947,0.038c-0.591,0.01-0.966,0.253-0.966,0.675
			c0,0.45,0.319,0.619,0.713,0.619C80.028,14.757,80.534,14.523,80.797,14.439z"/>
		<path fill="#FFFFFF" d="M83.732,10.538h1.247v0.685c0.244-0.347,0.741-0.788,1.378-0.788c0.291,0,0.497,0.028,0.666,0.084
			l-0.178,1.031c-0.244-0.047-0.366-0.056-0.656-0.056c-0.516,0-0.985,0.3-1.21,0.581v3.582h-1.247V10.538z"/>
		<path fill="#FFFFFF" d="M87.707,8.334h1.247v1.2h-1.247V8.334z M87.717,10.538h1.247v5.12h-1.247V10.538z"/>
		<path fill="#FFFFFF" d="M90.098,14.232c0-1.285,1.163-1.547,2.11-1.557l1.013-0.009v-0.45c0-0.591-0.338-0.731-1.078-0.731
			c-0.488,0-1.05,0.131-1.425,0.225l-0.253-0.928c0.45-0.169,1.116-0.366,1.903-0.366c1.416,0,2.072,0.422,2.072,1.519v2.494
			c0,0.244,0.206,0.3,0.469,0.319l-0.056,0.956h-0.272c-0.544,0-1.135-0.131-1.247-0.581c-0.328,0.244-0.853,0.619-1.594,0.619
			C90.699,15.742,90.098,15.217,90.098,14.232z M93.221,14.439v-1.013l-0.947,0.038c-0.591,0.01-0.966,0.253-0.966,0.675
			c0,0.45,0.319,0.619,0.713,0.619C92.452,14.757,92.958,14.523,93.221,14.439z"/>
	</g>
</g>
</svg>
