<?xml version="1.0" encoding="utf-8"?>
<!-- Generator: Adobe Illustrator 17.0.0, SVG Export Plug-In . SVG Version: 6.00 Build 0)  -->
<!DOCTYPE svg PUBLIC "-//W3C//DTD SVG 1.1//EN" "http://www.w3.org/Graphics/SVG/1.1/DTD/svg11.dtd">
<svg version="1.1" id="Layer_9" xmlns="http://www.w3.org/2000/svg" xmlns:xlink="http://www.w3.org/1999/xlink" x="0px" y="0px"
	 width="100px" height="27.288px" viewBox="0 0 100 27.288" enable-background="new 0 0 100 27.288" xml:space="preserve">
<g>
	<path fill="#FFFFFF" d="M15.692,18.074l-0.001-0.001c-0.188,0.478-0.658,0.818-1.211,0.818c-0.427,0-0.806-0.204-1.041-0.518
		h-0.001l-3.864-5.126l0.005-0.004c-0.16-0.213-0.255-0.474-0.255-0.759c0-0.703,0.581-1.276,1.298-1.276
		c0.428,0,0.807,0.205,1.042,0.519l0.003-0.002l2.488,3.3c0.924-2.106,2.293-4.907,4.066-7.667c0,0-0.001,0-0.001-0.001
		c0.003-0.004,0.007-0.009,0.009-0.013c-1.118-0.454-2.34-0.707-3.621-0.707c-5.321,0-9.633,4.313-9.633,9.633
		c0,5.32,4.312,9.633,9.633,9.633c5.319,0,9.632-4.313,9.632-9.633c0-3.115-1.479-5.882-3.773-7.643
		c0,0.002-0.002,0.003-0.003,0.005C18.083,12.318,16.455,16.129,15.692,18.074z"/>
	<path fill="#FFFFFF" d="M24.058,0.903c-0.346,0-0.662,0.135-0.895,0.353h-0.001c-1.883,1.762-3.534,3.912-4.933,6.088h0.001
		c0.001-0.001,0.001-0.002,0.002-0.003c0.02,0.008,0.039,0.019,0.059,0.027c0.784,0.325,1.514,0.75,2.177,1.259
		c1.286-1.988,2.788-3.936,4.485-5.525V3.101c0.248-0.233,0.403-0.559,0.403-0.922C25.356,1.474,24.775,0.903,24.058,0.903z"/>
</g>
<g>
	<path fill="#FFFFFF" d="M29.105,9.933h-2.144v-1.02h5.57v1.02h-2.144v5.598h-1.282V9.933z"/>
	<path fill="#FFFFFF" d="M32.166,10.42h1.348l0.936,3.052l0.29,1.048l0.318-1.058l1.048-3.042h1.301l-1.919,5.111h-1.554
		L32.166,10.42z"/>
	<path fill="#FFFFFF" d="M40.572,12.984V8.912h1.301v4.016c0,1.17,0.637,1.657,1.619,1.657c1.011,0,1.629-0.534,1.629-1.863v-3.81
		h1.254v3.838c0,2.237-1.516,2.902-2.883,2.902C42.06,15.652,40.572,15.044,40.572,12.984z"/>
	<path fill="#FFFFFF" d="M47.921,10.42h1.245v0.543c0.374-0.271,1.002-0.674,1.713-0.674c1.563,0,1.666,0.945,1.666,2.003v3.239
		h-1.236v-3.098c0-0.777-0.15-1.058-0.833-1.058c-0.515,0-1.002,0.234-1.311,0.403v3.754h-1.245V10.42z"/>
	<path fill="#FFFFFF" d="M53.996,8.22h1.245v1.198h-1.245V8.22z M54.005,10.42h1.245v5.111h-1.245V10.42z"/>
	<path fill="#FFFFFF" d="M56.121,10.42h1.348l0.936,3.052l0.29,1.048l0.318-1.058l1.048-3.042h1.301l-1.919,5.111H57.89
		L56.121,10.42z"/>
	<path fill="#FFFFFF" d="M61.84,13.059c0-2.087,1.058-2.761,2.499-2.761c1.479,0,2.078,0.974,2.078,2.574v0.449h-3.332
		c0,1.123,0.702,1.311,1.61,1.311c0.356,0,0.964-0.122,1.385-0.206l0.197,0.964c-0.421,0.131-1.105,0.253-1.807,0.253
		C62.861,15.643,61.84,15.063,61.84,13.059z M65.135,12.488c0.009-0.768-0.3-1.301-0.917-1.301c-0.627,0-1.048,0.459-1.105,1.301
		H65.135z"/>
	<path fill="#FFFFFF" d="M67.569,10.42h1.245v0.683c0.243-0.346,0.74-0.786,1.376-0.786c0.29,0,0.496,0.028,0.665,0.084l-0.178,1.03
		c-0.243-0.047-0.365-0.056-0.655-0.056c-0.515,0-0.983,0.3-1.208,0.58v3.576h-1.245V10.42z"/>
	<path fill="#FFFFFF" d="M71.211,15.428l0.15-0.964c0.534,0.084,1.058,0.168,1.451,0.168c0.796,0,1.03-0.243,1.03-0.524
		c0-0.786-2.574-0.477-2.574-2.284c0-1.03,0.936-1.535,2.003-1.535c0.599,0,1.142,0.122,1.535,0.262l-0.206,0.927
		c-0.403-0.094-0.786-0.187-1.329-0.187c-0.571,0-0.758,0.253-0.758,0.468c0,0.814,2.556,0.59,2.556,2.284
		c0,1.282-1.282,1.601-2.134,1.601C72.212,15.643,71.641,15.549,71.211,15.428z"/>
	<path fill="#FFFFFF" d="M76.191,8.22h1.245v1.198h-1.245V8.22z M76.2,10.42h1.245v5.111H76.2V10.42z"/>
	<path fill="#FFFFFF" d="M78.624,12.928c0-1.76,1.179-2.64,2.64-2.64c0.356,0,0.571,0.037,0.805,0.084v-1.9h1.245v7.058h-1.245
		v-0.412c-0.253,0.215-0.599,0.496-1.217,0.496C79.869,15.615,78.624,15.166,78.624,12.928z M82.069,14.248v-2.864
		c-0.187-0.047-0.421-0.103-0.786-0.103c-1.011,0-1.413,0.721-1.413,1.676c0,1.217,0.534,1.619,1.198,1.619
		C81.433,14.576,81.844,14.37,82.069,14.248z"/>
	<path fill="#FFFFFF" d="M84.447,14.108c0-1.282,1.161-1.545,2.106-1.554l1.011-0.009v-0.449c0-0.59-0.337-0.73-1.076-0.73
		c-0.487,0-1.048,0.131-1.423,0.225l-0.253-0.927c0.449-0.168,1.114-0.365,1.9-0.365c1.413,0,2.069,0.421,2.069,1.516v2.49
		c0,0.243,0.206,0.3,0.468,0.318l-0.056,0.955h-0.271c-0.543,0-1.133-0.131-1.245-0.58c-0.328,0.243-0.852,0.618-1.591,0.618
		C85.046,15.615,84.447,15.091,84.447,14.108z M87.564,14.314v-1.011l-0.945,0.037c-0.59,0.009-0.964,0.253-0.964,0.674
		c0,0.449,0.318,0.618,0.711,0.618C86.797,14.632,87.302,14.398,87.564,14.314z"/>
	<path fill="#FFFFFF" d="M90.185,12.928c0-1.76,1.179-2.64,2.64-2.64c0.356,0,0.571,0.037,0.805,0.084v-1.9h1.245v7.058H93.63
		v-0.412c-0.253,0.215-0.599,0.496-1.217,0.496C91.43,15.615,90.185,15.166,90.185,12.928z M93.63,14.248v-2.864
		c-0.187-0.047-0.421-0.103-0.786-0.103c-1.011,0-1.413,0.721-1.413,1.676c0,1.217,0.534,1.619,1.198,1.619
		C92.993,14.576,93.405,14.37,93.63,14.248z"/>
</g>
<g>
	<path fill="#FFFFFF" d="M36.523,18.889h2.431v0.791h-1.541v0.933h1.425v0.737h-1.425v0.951h1.661v0.791h-2.552V18.889z"/>
	<path fill="#FFFFFF" d="M39.771,18.889h1.326c1.284,0,2.164,0.624,2.164,2.086c0,1.456-0.796,2.116-2.133,2.116h-1.357V18.889z
		 M41.186,22.301c0.854,0,1.184-0.44,1.184-1.266c0-0.904-0.398-1.355-1.289-1.355h-0.424v2.621H41.186z"/>
	<path fill="#FFFFFF" d="M43.905,21.38v-2.49h0.901v2.455c0,0.642,0.257,0.999,0.823,0.999c0.561,0,0.823-0.375,0.823-1.123v-2.33
		h0.875v2.348c0,1.468-0.87,1.932-1.698,1.932C44.775,23.169,43.905,22.741,43.905,21.38z"/>
	<path fill="#FFFFFF" d="M47.893,22.86l0.252-0.725c0.33,0.131,0.571,0.19,0.98,0.19c0.446,0,0.65-0.155,0.65-0.41
		c0-0.683-1.761-0.499-1.761-1.926c0-0.808,0.676-1.159,1.331-1.159c0.587,0,0.87,0.143,1.158,0.285l-0.257,0.701
		c-0.272-0.089-0.498-0.172-0.875-0.172c-0.372,0-0.487,0.16-0.487,0.339c0,0.559,1.792,0.559,1.792,1.896
		c0,0.921-0.775,1.278-1.54,1.278C48.527,23.157,48.171,23.032,47.893,22.86z"/>
	<path fill="#FFFFFF" d="M52.394,18.889h1.147l1.247,4.202h-0.922l-0.351-1.23h-1.252l-0.403,1.23h-0.891L52.394,18.889z
		 M53.305,21.13l-0.372-1.617l-0.435,1.617H53.305z"/>
	<path fill="#FFFFFF" d="M55.668,19.68h-1.163v-0.791h3.217v0.791h-1.163v3.412h-0.891V19.68z"/>
</g>
<path fill="#FFFFFF" d="M28.383,23.054V22.52c0.315-0.298,1.773-1.587,1.773-2.251c0-0.462-0.236-0.613-0.613-0.613
	c-0.405,0-0.63,0.106-0.799,0.18l-0.243-0.524c0.243-0.141,0.518-0.281,1.114-0.281c1.086,0,1.295,0.647,1.295,1.193
	c0,0.839-0.833,1.576-1.57,2.218h1.744v0.614H28.383z"/>
<path fill="#FFFFFF" d="M31.66,23.054V22.52c0.315-0.298,1.773-1.587,1.773-2.251c0-0.462-0.236-0.613-0.613-0.613
	c-0.405,0-0.63,0.106-0.799,0.18l-0.243-0.524c0.243-0.141,0.518-0.281,1.114-0.281c1.086,0,1.295,0.647,1.295,1.193
	c0,0.839-0.833,1.576-1.57,2.218h1.744v0.614H31.66z"/>
</svg>
